<svg xmlns="http://www.w3.org/2000/svg" xmlns:xlink="http://www.w3.org/1999/xlink" width="106" height="105" viewBox="0 0 106 105"><defs><style>.a{fill:#fff;}.b{opacity:0.2;}.c{fill:#b84336;}.d{fill:#05386b;}.e{filter:url(#a);}</style><filter id="a" x="0" y="0" width="106" height="105" filterUnits="userSpaceOnUse"><feOffset dy="1" input="SourceAlpha"/><feGaussianBlur stdDeviation="9" result="b"/><feFlood flood-color="#1493a0" flood-opacity="0.153"/><feComposite operator="in" in2="b"/><feComposite in="SourceGraphic"/></filter></defs><g transform="translate(27 25.5)"><g class="e" transform="matrix(1, 0, 0, 1, -27, -25.5)"><rect class="a" width="52" height="51" rx="3" transform="translate(27 26)"/></g><g transform="translate(0 1.5)"><g class="b" transform="translate(15.725 9.775)"><circle class="c" cx="9.775" cy="9.775" r="9.775"/></g><g transform="translate(6.375 7.645)"><path class="d" d="M8.1,35.348a.425.425,0,0,1-.05-.847l.05,0H29.335a.425.425,0,0,1,.05.847l-.05,0Zm1.68-2.521a.425.425,0,0,1-.05-.847l.05,0h8.477a6.009,6.009,0,0,1-1.67-3.138,11.4,11.4,0,0,1,.041-4.336,16.58,16.58,0,0,1,1.641-4.855L18.3,8.771c-.183.009-.378.024-.584.044a9.635,9.635,0,0,0-2.71.794l-1.026.412a10.158,10.158,0,0,1-3.021.871c-.193.017-.384.025-.567.025a5.876,5.876,0,0,1-2.9-.785l-.157-.085-.12-.068L6.9,9.793l3.644,12.181h.212a.789.789,0,0,1,.607.284,1.16,1.16,0,0,1,.253.912,5.7,5.7,0,0,1-1.944,3.548,5.941,5.941,0,0,1-7.713,0A5.7,5.7,0,0,1,.012,23.171a1.16,1.16,0,0,1,.253-.912.789.789,0,0,1,.607-.284h.21L5.106,8.534a.724.724,0,0,1,.706-.419.745.745,0,0,1,.672.358c.166.059.372.143.646.26l.338.145A4.341,4.341,0,0,0,9.212,9.3a3.967,3.967,0,0,0,1.548-.349l.347-.146c.678-.292,1.434-.643,2.525-1.175l3.185-1.557c.222-.106.426-.2.682-.318a3.578,3.578,0,0,1,.812-.269l.008-2.452a.427.427,0,0,1,.006-.071h-.241a.424.424,0,0,1-.245-.078,1.589,1.589,0,1,1,1.828,0,.422.422,0,0,1-.245.078h-.259c0,.008,0,.016,0,.024l0,.049-.008,2.443a3.465,3.465,0,0,1,.808.258l.357.161c.421.192.833.389,1.472.7l2.378,1.17c1.132.551,1.852.882,2.57,1.182A3.97,3.97,0,0,0,28.3,9.3a4.145,4.145,0,0,0,1.613-.37l.733-.311a5.206,5.206,0,0,1,.583-.213.764.764,0,0,1,.638-.293.733.733,0,0,1,.718.454l4.01,13.406H36.8a.789.789,0,0,1,.607.284,1.16,1.16,0,0,1,.253.912,5.7,5.7,0,0,1-1.944,3.548,5.941,5.941,0,0,1-7.713,0,5.7,5.7,0,0,1-1.944-3.548,1.16,1.16,0,0,1,.253-.912.789.789,0,0,1,.607-.284h.21l3.681-12.3c-.185.1-.39.221-.519.295l0,0-.125.071a6.027,6.027,0,0,1-3.052.87c-.183,0-.374-.009-.567-.026a11.167,11.167,0,0,1-3.357-1l-.531-.213a10.2,10.2,0,0,0-2.9-.865c-.21-.02-.414-.034-.6-.043l-.034,10.746.007.015.024.058a14.49,14.49,0,0,1,1.668,4.871l.024.143a11.634,11.634,0,0,1,.012,4.19,6.019,6.019,0,0,1-1.622,3.136l-.053.05h8.478a.425.425,0,0,1,.049.847l-.049,0Zm7.686-8.175c-.514,2.88-.118,5.067,1.176,6.5l.078.084.028-.029c1.259-1.344,1.7-3.516,1.285-6.283L20,24.738a17.164,17.164,0,0,0-.861-3.224c-.035-.094-.072-.188-.109-.28a.425.425,0,0,1-.62.071A20.071,20.071,0,0,0,17.463,24.653Zm9.46-1.828h0s0,.013,0,.03a.485.485,0,0,0-.016.2,5.02,5.02,0,0,0,9.917,0,.483.483,0,0,0-.016-.2c0-.017-.007-.027,0-.031H26.923Zm-26.051,0h0s0,.013,0,.03a.485.485,0,0,0-.016.2,4.979,4.979,0,0,0,4.958,4.236,4.979,4.979,0,0,0,4.959-4.236.483.483,0,0,0-.016-.2c0-.017-.007-.027,0-.031H.872Zm27.151-.871H35.7L31.91,9.286h-.026l-.052,0h-.015Zm-26.05,0H9.649L5.864,9.3a.884.884,0,0,0-.1-.015ZM19.836,7.965a9.817,9.817,0,0,1,2.814.793l1.306.521a9.264,9.264,0,0,0,2.665.765c.166.015.329.022.486.022.062,0,.124,0,.184,0l.119-.007-.112-.025a5.749,5.749,0,0,1-.725-.231l-.152-.061L26.1,9.6c-.691-.3-1.449-.651-2.617-1.224l-2.443-1.2c-.554-.269-.938-.448-1.415-.662a2.882,2.882,0,0,0-.463-.165l0,1.568C19.368,7.927,19.6,7.943,19.836,7.965ZM17.854,6.529l-.849.4c-.426.2-.978.475-1.981.969l-.842.413c-1.4.685-2.269,1.086-3.095,1.429a5.952,5.952,0,0,1-.877.293l-.112.025.119.007c.059,0,.12,0,.181,0,.1,0,.208,0,.317-.01l.173-.013.158-.016a10.778,10.778,0,0,0,2.793-.865l.714-.287a10.683,10.683,0,0,1,3.084-.907c.235-.023.459-.039.669-.049l0-1.56A3.048,3.048,0,0,0,17.854,6.529Zm.161-4.94a.73.73,0,0,0,.207.51l.016.015H19.27l.016-.015a.729.729,0,0,0,.2-.438l0-.072a.739.739,0,0,0-1.478,0Z" transform="translate(0 0)"/></g></g></g></svg>