<svg xmlns="http://www.w3.org/2000/svg" width="120" height="120" viewBox="0 0 120 120"><defs><style>.a{opacity:0.2;}.b{fill:#b84336;}.c{fill:#05386b;}</style></defs><g class="a" transform="translate(29.63 15)"><path class="b" d="M75,0,49.476,75,40.241,47.494l7.826-19.2L27.506,34.76,0,25.524Z"/></g><path class="c" d="M57.452,88.5,46.2,54.975a1.139,1.139,0,0,1,.025-.791L53.876,35.4,35.091,43.056a1.133,1.133,0,0,1-.429.084,1.109,1.109,0,0,1-.231-.023l-.131-.035L.775,31.824a1.137,1.137,0,0,1,0-2.155l87-29.606A1.161,1.161,0,0,1,88.143,0a1.142,1.142,0,0,1,.922.481,1.122,1.122,0,0,1,.148,1.025l-29.607,87a1.136,1.136,0,0,1-2.154,0Zm-.587-55.848a1.117,1.117,0,0,1,.175,1L57,33.756,48.484,54.651,58.536,84.588,86.316,2.959,4.686,30.74,34.623,40.791l20.9-8.517a1.124,1.124,0,0,1,1.346.379Zm-28.1,51.979a1.136,1.136,0,0,1-.088-1.508l.088-.1,13.96-13.96a1.137,1.137,0,0,1,1.7,1.509l-.088.1L30.374,84.632a1.137,1.137,0,0,1-1.607,0ZM11.158,75.924a1.137,1.137,0,0,1-.088-1.508l.088-.1L34.222,51.253a1.137,1.137,0,0,1,1.7,1.508l-.088.1L12.767,75.924a1.138,1.138,0,0,1-1.608,0ZM2.451,58.316a1.139,1.139,0,0,1-.088-1.509l.088-.1,13.961-13.96a1.137,1.137,0,0,1,1.7,1.508l-.088.1L4.059,58.316a1.138,1.138,0,0,1-1.608,0Z" transform="translate(15 14.998)"/></svg>