<svg xmlns="http://www.w3.org/2000/svg" width="87" height="87" viewBox="0 0 87 87"><defs><style>.a{opacity:0.2;}.b{fill:#b84336;}.c{fill:#05386b;}</style></defs><g class="a" transform="translate(13.05 13.05)"><circle class="b" cx="24.65" cy="24.65" r="24.65"/></g><path class="c" d="M47.681,63.972,46.1,62.006a.027.027,0,0,0-.023-.01H46.07c-.365.028-.739.043-1.111.043a14.576,14.576,0,0,1-2.5-.216h-.012a.029.029,0,0,0-.024.009l-1.477,1.65a1.479,1.479,0,0,1-1.781.328l-4.523-2.337a1.506,1.506,0,0,1-.777-1.635l.487-2.379a.057.057,0,0,0-.018-.052,14.921,14.921,0,0,1-2.2-3.054c-.01-.02-.022-.027-.029-.027l-2.106-.121a1.493,1.493,0,0,1-1.368-1.186l-.2-.957a25.547,25.547,0,0,1-20.889-7.51,26.328,26.328,0,0,1,0-36.9,25.56,25.56,0,0,1,36.468,0,.725.725,0,1,1-1.032,1.019,24.111,24.111,0,0,0-34.4,0,24.878,24.878,0,0,0,0,34.867,24.1,24.1,0,0,0,19.558,7.1l-.555-2.651a1.505,1.505,0,0,1,.1-.915,20.1,20.1,0,0,1-15.869-5.959.725.725,0,1,1,1.032-1.019,18.64,18.64,0,0,0,17.63,5.077,14.927,14.927,0,0,1,.979-3.642.063.063,0,0,0,0-.059l-1.223-1.723a1.512,1.512,0,0,1,.05-1.809l3.195-4a1.475,1.475,0,0,1,1.158-.559,1.455,1.455,0,0,1,.6.129l2.2.984h.007a.049.049,0,0,0,.024-.008,14.5,14.5,0,0,1,3.377-1.5.05.05,0,0,0,.036-.031l.569-2.119a1.491,1.491,0,0,1,1.435-1.105h1.674a.726.726,0,0,1,.013-.184,19.376,19.376,0,0,0-5.146-17.4,18.621,18.621,0,0,0-26.649,0,19.434,19.434,0,0,0-1.719,25.128.725.725,0,1,1-1.163.866,20.884,20.884,0,0,1,1.847-27.011,20.071,20.071,0,0,1,28.717,0,20.825,20.825,0,0,1,5.555,18.6h1.946a1.49,1.49,0,0,1,1.434,1.105l.077.286a25.775,25.775,0,0,0-4.379-20.535.725.725,0,0,1,1.167-.861,27.27,27.27,0,0,1,4.124,23.722,14.532,14.532,0,0,1,3.465,1.995.05.05,0,0,0,.027.012h.005l2.132-.82a1.465,1.465,0,0,1,.528-.1,1.487,1.487,0,0,1,1.206.622l2.985,4.166a1.514,1.514,0,0,1-.044,1.809l-1.627,2.057a.062.062,0,0,0-.005.054,15.006,15.006,0,0,1,.522,3.453.063.063,0,0,0,.02.05l2.019,1.195a1.5,1.5,0,0,1,.683,1.676l-1.313,4.973a1.492,1.492,0,0,1-1.43,1.113l-2.594.012s-.014,0-.028.022a14.835,14.835,0,0,1-2.32,2.625.056.056,0,0,0-.022.05l.35,2.307a1.5,1.5,0,0,1-.861,1.592l-4.638,2.095a1.464,1.464,0,0,1-.606.131A1.481,1.481,0,0,1,47.681,63.972ZM47.227,61.1l1.583,1.966a.037.037,0,0,0,.025.014l.011,0,4.637-2.094a.049.049,0,0,0,.025-.053l-.35-2.307a1.5,1.5,0,0,1,.491-1.349A13.386,13.386,0,0,0,55.743,54.9a1.49,1.49,0,0,1,1.212-.645l2.594-.011a.038.038,0,0,0,.034-.033L60.9,49.237a.051.051,0,0,0-.02-.057l-2.019-1.195a1.506,1.506,0,0,1-.73-1.247,13.535,13.535,0,0,0-.471-3.12,1.515,1.515,0,0,1,.266-1.336l1.627-2.055a.058.058,0,0,0,0-.067L56.568,36a.033.033,0,0,0-.027-.016l-.009,0L54.4,36.8a1.465,1.465,0,0,1-.524.1,1.506,1.506,0,0,1-.917-.316,13.084,13.084,0,0,0-3.385-1.9,1.5,1.5,0,0,1-.917-1.01l-.663-2.464a.038.038,0,0,0-.034-.033H42.884a.039.039,0,0,0-.035.032l-.57,2.119a1.488,1.488,0,0,1-1.022,1.044,13,13,0,0,0-3.039,1.349,1.5,1.5,0,0,1-.775.217,1.46,1.46,0,0,1-.6-.127l-2.205-.984a.027.027,0,0,0-.012,0,.029.029,0,0,0-.024.014l-3.194,4a.056.056,0,0,0,0,.066l1.223,1.724a1.5,1.5,0,0,1,.159,1.45A13.443,13.443,0,0,0,31.9,45.4q-.01.075-.027.149a.725.725,0,0,1-.512.889l-.139.037q-.052.033-.108.062l-2.093,1.094a.051.051,0,0,0-.022.055l1.056,5.037a.041.041,0,0,0,.033.035l2.106.121a1.48,1.48,0,0,1,1.221.784A13.471,13.471,0,0,0,35.4,56.417a1.511,1.511,0,0,1,.38,1.332l-.488,2.38a.051.051,0,0,0,.022.055l4.523,2.338a.029.029,0,0,0,.013,0,.031.031,0,0,0,.023-.01l1.477-1.65a1.484,1.484,0,0,1,1.1-.491,1.515,1.515,0,0,1,.26.023,13.1,13.1,0,0,0,2.246.194c.339,0,.676-.013,1-.038.037,0,.076,0,.113,0A1.478,1.478,0,0,1,47.227,61.1ZM38.8,53.277a8.7,8.7,0,1,1,6.152,2.549A8.644,8.644,0,0,1,38.8,53.277Zm-1.1-6.152a7.25,7.25,0,1,0,7.25-7.25A7.258,7.258,0,0,0,37.7,47.125ZM24.654,26.181l0-.081V16.675A.725.725,0,0,1,26.1,16.59l0,.085v7.761l3.132-2.908a.725.725,0,0,1,.959-.025l.066.063a.726.726,0,0,1,.025.959l-.063.066-4.35,4.039a.711.711,0,0,1-.489.2A.726.726,0,0,1,24.654,26.181Z" transform="translate(12.325 11.6)"/></svg>