<svg xmlns="http://www.w3.org/2000/svg" width="87" height="87" viewBox="0 0 87 87"><defs><style>.a{opacity:0.2;}.b{fill:#b84336;}.c{fill:#05386b;}</style></defs><g transform="translate(11.334 17.858)"><g class="a" transform="translate(21.907 1.642)"><path class="b" d="M12.214,2.7a.725.725,0,0,1,1.378,0l2.221,6.764h7.165a.725.725,0,0,1,.423,1.314l-5.79,4.163,2.216,6.748a.725.725,0,0,1-1.112.815L12.9,18.329,7.092,22.508a.725.725,0,0,1-1.112-.815L8.2,14.945l-5.79-4.163a.725.725,0,0,1,.423-1.314H9.994Z" transform="translate(-2.102 -2.206)"/></g><path class="c" d="M40.126,50.552a30.32,30.32,0,0,1-7.864-1.158A30.32,30.32,0,0,1,24.4,50.552a.725.725,0,1,1-.022-1.45,28.869,28.869,0,0,0,5.3-.571,32.116,32.116,0,0,1-7.565-4.162,8.774,8.774,0,0,1-6.8,3.218h0c-.241,0-.487-.01-.728-.029a8.807,8.807,0,0,1-6.9-4.389.728.728,0,0,1,.068-.821,8.766,8.766,0,0,1,6.8-3.227c.242,0,.487.01.73.031a8.766,8.766,0,0,1,1.4.231,37,37,0,0,1-2.432-3.068.721.721,0,0,1-.242.2,8.869,8.869,0,0,1-4,.961h0a8.8,8.8,0,0,1-8.738-7.852.73.73,0,0,1,.392-.725,8.79,8.79,0,0,1,8.18.1q.113.061.223.125a9.09,9.09,0,0,1-.405-1.391,40.962,40.962,0,0,1-1.745-5.769,7.019,7.019,0,0,1-6.046-2.188,7.019,7.019,0,0,1-1.7-6.3.729.729,0,0,1,.6-.56,7.02,7.02,0,0,1,6.148,2.174l.039.042c-.05-.878-.074-1.762-.071-2.655a7.628,7.628,0,0,1,.3-12.35.726.726,0,0,1,.825,0,7.629,7.629,0,0,1,.33,12.324A40.923,40.923,0,0,0,9.79,23.5,9.064,9.064,0,0,1,16.5,17.064a.7.7,0,0,1,.164-.019.724.724,0,0,1,.6.322A9.063,9.063,0,0,1,12.7,30.983a36.066,36.066,0,0,0,6.366,8.831,9.063,9.063,0,0,1,3.527-10.107.723.723,0,0,1,.825,0A9.064,9.064,0,0,1,24.18,44.05a30.151,30.151,0,0,0,8.082,3.831,30.132,30.132,0,0,0,8.082-3.832,9.065,9.065,0,0,1,.76-14.344.724.724,0,0,1,.825,0,9.062,9.062,0,0,1,3.527,10.107,36.064,36.064,0,0,0,6.366-8.831,9.064,9.064,0,0,1-4.561-13.616.724.724,0,0,1,.6-.322.7.7,0,0,1,.164.019A9.061,9.061,0,0,1,54.734,23.5a40.923,40.923,0,0,0,1.451-11.051A7.629,7.629,0,0,1,56.515.129a.726.726,0,0,1,.825,0,7.628,7.628,0,0,1,.3,12.351q.005,1.338-.071,2.655l.039-.043a7.02,7.02,0,0,1,6.148-2.174.73.73,0,0,1,.6.56,7.009,7.009,0,0,1-6.841,8.542,7.1,7.1,0,0,1-.9-.058,41.007,41.007,0,0,1-1.745,5.768,9.094,9.094,0,0,1-.405,1.391q.111-.064.223-.125a8.788,8.788,0,0,1,8.18-.1.729.729,0,0,1,.392.725,8.793,8.793,0,0,1-12.739,6.891.72.72,0,0,1-.243-.2,37.007,37.007,0,0,1-2.432,3.068,8.772,8.772,0,0,1,1.4-.231c.242-.02.487-.031.729-.031a8.768,8.768,0,0,1,6.8,3.227.728.728,0,0,1,.068.821,8.807,8.807,0,0,1-6.9,4.389c-.241.02-.486.029-.728.029a8.772,8.772,0,0,1-6.8-3.218,32.117,32.117,0,0,1-7.565,4.162,28.9,28.9,0,0,0,5.3.571.725.725,0,0,1-.011,1.45ZM49.363,40.6a7.326,7.326,0,0,0-5.393,3.082l-.1.147.125.131a7.291,7.291,0,0,0,5.217,2.181c.124,0,.249,0,.373-.009l.235-.016a7.332,7.332,0,0,0,5.394-3.083l.1-.149-.124-.129a7.286,7.286,0,0,0-5.215-2.181C49.771,40.571,49.566,40.58,49.363,40.6ZM9.335,42.752l-.125.129.1.149a7.356,7.356,0,0,0,5.158,3.06l.235.023c.2.016.407.025.608.025a7.293,7.293,0,0,0,5.217-2.181l.124-.13-.1-.148a7.349,7.349,0,0,0-5.158-3.06l-.234-.023c-.2-.017-.409-.025-.611-.025A7.283,7.283,0,0,0,9.335,42.752Zm32.039-11.43a7.613,7.613,0,0,0,0,11.7l.142.115.143-.115A7.621,7.621,0,0,0,44.4,37.409l0-.237a7.6,7.6,0,0,0-2.741-5.851l-.143-.115Zm-18.509,0a7.614,7.614,0,0,0,0,11.7l.142.115.143-.115a7.624,7.624,0,0,0,2.739-5.614l0-.237a7.6,7.6,0,0,0-2.742-5.851l-.143-.115Zm32.51-1.049a7.331,7.331,0,0,0-3.7,4.989l-.034.176.188.078a7.332,7.332,0,0,0,5.963-.262l.217-.112a7.335,7.335,0,0,0,3.7-4.99l.033-.177-.187-.077a7.33,7.33,0,0,0-6.179.375ZM2.971,29.9l-.189.077.034.177a7.353,7.353,0,0,0,3.495,4.874l.206.116a7.334,7.334,0,0,0,6.18.375l.187-.077-.033-.177a7.351,7.351,0,0,0-3.5-4.874l-.206-.115A7.33,7.33,0,0,0,2.971,29.9ZM48.095,18.789a7.613,7.613,0,0,0,4.314,10.862l.059.018q.536-1.148,1-2.345a7.611,7.611,0,0,0-.311-4l-.087-.229a7.6,7.6,0,0,0-4.7-4.432l-.175-.055ZM12.056,29.67l.058-.018a7.628,7.628,0,0,0,4.611-4.213l.09-.219a7.6,7.6,0,0,0-.388-6.43l-.1-.18-.175.055a7.615,7.615,0,0,0-5.1,8.65C11.361,28.114,11.7,28.9,12.056,29.67ZM62.747,14.3a5.56,5.56,0,0,0-5.528,6.16l.013.106.107.005c.059,0,.119,0,.177,0a5.519,5.519,0,0,0,3.931-1.627l.147-.153a5.562,5.562,0,0,0,1.448-4.379l-.014-.106-.106-.005c-.059,0-.117,0-.175,0h0ZM1.6,14.3l-.108.005-.013.106a5.583,5.583,0,0,0,1.306,4.22l.142.159a5.575,5.575,0,0,0,4.079,1.781c.059,0,.118,0,.177,0l.106-.005.014-.106A5.58,5.58,0,0,0,6,16.236l-.142-.159A5.575,5.575,0,0,0,1.777,14.3C1.719,14.3,1.66,14.3,1.6,14.3ZM56.828,1.715a6.177,6.177,0,0,0,0,9.391l.1.082.1-.082a6.2,6.2,0,0,0,2.16-4.476l0-.219a6.177,6.177,0,0,0-2.164-4.7l-.1-.083Zm-49.33,0a6.176,6.176,0,0,0,0,9.391l.1.082.1-.082a6.194,6.194,0,0,0,2.16-4.476l0-.219A6.175,6.175,0,0,0,7.7,1.715l-.1-.083ZM37.974,20.93l-.067-.043-5.2-3.779-5.2,3.779a.719.719,0,0,1-.423.142h0a.744.744,0,0,1-.572-.279.7.7,0,0,1-.14-.6l.02-.076,1.986-6.114-5.2-3.777a.725.725,0,0,1,.344-1.308l.082,0h6.428l1.986-6.113a.725.725,0,0,1,1.379,0l1.986,6.113h6.428a.725.725,0,0,1,.491,1.259l-.064.052-5.2,3.777,1.986,6.114a.7.7,0,0,1-.1.645.738.738,0,0,1-.594.307A.7.7,0,0,1,37.974,20.93Zm-4.919-5.354.079.05,3.82,2.776L35.5,13.911a.726.726,0,0,1,.191-.752l.072-.059,3.82-2.776H34.857A.727.727,0,0,1,34.2,9.9l-.031-.079L32.708,5.33,31.249,9.823a.725.725,0,0,1-.69.5H25.836L29.657,13.1a.73.73,0,0,1,.286.72l-.023.091L28.461,18.4l3.821-2.776a.72.72,0,0,1,.426-.138A.727.727,0,0,1,33.055,15.576Z" transform="translate(0 0)"/></g></svg>