<svg xmlns="http://www.w3.org/2000/svg" width="94" height="94" viewBox="0 0 94 94"><defs><style>.a{opacity:0.2;}.b{fill:#b84336;}.c{fill:#05386b;}</style></defs><g class="a" transform="translate(31.333 14.1)"><rect class="b" width="37.6" height="66.583"/></g><path class="c" d="M59.4,69.717H14.037c-4.732,0-6.28-1.514-6.333-6.169l0-1.347V44.317L5.072,46.206a.783.783,0,0,1-1.235-.547l0-.089V35.7a.785.785,0,0,1,.024-.192A6.841,6.841,0,0,1,7.7,23.573l0-14.784,0-.876q0-.137,0-.269H.01l0-1.221L0,5.9c0-.52,0-.869.032-1.244l.011-.143C.265,1.841,1.518.194,4.3.016L4.357.008l.1,0h.145l.212,0V0H8.425l.061,0H49.265c4.649,0,6.169,1.46,6.265,6.012l0,.474V62.073h9.48l0,1.065.009.679a12.169,12.169,0,0,1-.051,1.4,4.449,4.449,0,0,1-4.164,4.406.822.822,0,0,1-.4.094H59.4ZM9.269,63.31c0,3.986.832,4.839,4.768,4.84H55.644l-.042-.042c-1.105-1.171-1.6-3-1.632-5.57V6.486c0-4.01-.757-4.887-4.5-4.917H8.538l-.051,0H8.08l.1.133a4.7,4.7,0,0,1,.514.978l.068.183a12.786,12.786,0,0,1,.519,4.491L9.27,9.244v14.34a6.839,6.839,0,0,1,3.748,11.927.778.778,0,0,1,.018.1l0,.092V45.57a.783.783,0,0,1-1.164.685l-.075-.048L9.269,44.39ZM59.89,68.139c2.432-.115,3.331-1.124,3.525-3.078a10.886,10.886,0,0,0,.044-1.25l0-.171H55.581C55.817,66.772,56.988,68.012,59.89,68.139Zm-51.082-26,.085.053,2.581,1.851v-7.5a6.93,6.93,0,0,1-6.076,0v7.5L7.98,42.192a.783.783,0,0,1,.828-.053Zm-5.7-11.75A5.332,5.332,0,1,0,8.436,25.1,5.316,5.316,0,0,0,3.106,30.389ZM1.6,4.644c-.024.285-.035.545-.037.888v.545h6.12a8.625,8.625,0,0,0-.408-2.694,2.511,2.511,0,0,0-2.634-1.81H4.566C2.53,1.645,1.772,2.63,1.6,4.644ZM20.373,46.732a.783.783,0,0,1-.092-1.562l.092-.006H46.4a.783.783,0,0,1,.092,1.562l-.092.006Zm0-5.617a.783.783,0,0,1-.092-1.562l.092,0H46.4A.783.783,0,0,1,46.5,41.11l-.092.006Zm0-5.617a.783.783,0,0,1-.092-1.561l.092-.006H46.4a.783.783,0,0,1,.092,1.562l-.092,0Zm0-5.616a.783.783,0,0,1-.092-1.562l.092,0H41.561a.783.783,0,0,1,.092,1.561l-.092.006Zm0-5.617a.783.783,0,0,1-.092-1.561l.092-.006H47.01a.783.783,0,0,1,.092,1.562l-.092,0Zm0-10.966a.783.783,0,0,1-.092-1.562l.092-.006H47.01a.783.783,0,0,1,.092,1.562l-.092.006Z" transform="translate(14.1 12.533)"/></svg>