<svg xmlns="http://www.w3.org/2000/svg" width="120" height="120" viewBox="0 0 120 120"><defs><style>.a{opacity:0.2;}.b{fill:#b84336;}.c{fill:#05386b;}</style></defs><g class="a" transform="translate(27.561 32.457)"><path class="b" d="M23.31,0a9.906,9.906,0,0,1,9.029,13.747,1,1,0,0,0,.773,1.377,11.559,11.559,0,0,1,7.321,18.486,1,1,0,0,0,.357,1.513,10.52,10.52,0,0,1-4.485,19.986A10.291,10.291,0,0,1,31.66,54a1,1,0,0,0-1.088.124,11.363,11.363,0,0,1-14.081.349,1,1,0,0,0-.961-.133,11.31,11.31,0,0,1-4.093.764A11.545,11.545,0,0,1,7.229,32.855a1,1,0,0,0,.46-1.485,10.545,10.545,0,0,1,6.024-16.04,1,1,0,0,0,.66-1.377A9.9,9.9,0,0,1,23.31,0Z"/></g><path class="c" d="M24.242,87.139l-.007-.116v-.389H1a1,1,0,0,1-.116-1.993L1,84.634H24.234V74.643A13.308,13.308,0,0,1,18.286,72.5l-.194-.133-.327.108a13.318,13.318,0,0,1-3.52.6l-.453.007a13.3,13.3,0,0,1-9.5-3.965A13.569,13.569,0,0,1,7.681,47.5l.1-.049L7.752,47.4a12.418,12.418,0,0,1-1.476-5.511l-.006-.419a12.5,12.5,0,0,1,2.262-7.2,12.364,12.364,0,0,1,5.874-4.543L14.5,29.7l-.042-.122a11.876,11.876,0,0,1-.584-3.292l-.007-.425a11.991,11.991,0,0,1,.588-3.725h-5.2a6.948,6.948,0,0,1-6.888-6.413l-.01-.16-.032-.047a10.028,10.028,0,0,1-1.607-5.1l-.007-.368a9.957,9.957,0,0,1,18.5-5.2l.146.251.184-.041a5.659,5.659,0,0,1,.847-.107l.288-.007a5.685,5.685,0,0,1,5.062,3.111l.1.209.028,0a6.96,6.96,0,0,1,6.2,6.682l0,.239a1,1,0,0,1-.18.572,11.959,11.959,0,0,1,5.09,13.531l-.022.07.345.089A13.523,13.523,0,0,1,47.2,42.176l0,.319a13.57,13.57,0,0,1-1.957,7.028l-.2.324.074.045A12.474,12.474,0,0,1,51.075,60.25l0,.323a12.468,12.468,0,0,1-3.636,8.841A12.348,12.348,0,0,1,33.861,72.1l-.16-.071-.1.08a13.284,13.284,0,0,1-7.362,2.6v9.926h30.03V79.65H52.983a1,1,0,0,1-.116-1.993l.116-.007h3.281v-1.7H52.983a1,1,0,0,1-.116-1.993l.116-.007h3.281V69.378H52.78a1,1,0,0,1-.117-1.993l.117-.007h3.485V63.243a1,1,0,0,1,1.993-.117l.006.117v4.136H76.243V63.243a1,1,0,0,1,1.993-.117l.007.117v4.136h3.485a1,1,0,0,1,.116,1.993l-.116.006H78.242v4.574h3.688a1,1,0,0,1,.117,1.993l-.117.006H78.242v1.7h3.688a1,1,0,0,1,.117,1.993l-.117.007H78.242v4.984H80.5a1,1,0,0,1,.116,1.993l-.116.006H26.234v.389a1,1,0,0,1-1.993.116Zm52-2.5V79.65H58.264v4.984Zm0-6.985v-1.7H58.264v1.7Zm0-3.7V69.378H58.264v4.574ZM26.234,72.706A11.406,11.406,0,0,0,32.928,70.1a1,1,0,0,1,1.089-.123,10.236,10.236,0,0,0,4.646,1.1A10.52,10.52,0,0,0,43.148,51.09a1,1,0,0,1-.357-1.512A11.559,11.559,0,0,0,35.47,31.092a1,1,0,0,1-.773-1.377,9.806,9.806,0,1,0-17.967.207,1,1,0,0,1-.661,1.377,10.546,10.546,0,0,0-6.024,16.04,1,1,0,0,1-.46,1.485,11.545,11.545,0,0,0,4.207,22.252,11.291,11.291,0,0,0,4.093-.764.987.987,0,0,1,.36-.067,1.008,1.008,0,0,1,.6.2,11.267,11.267,0,0,0,5.387,2.185V67.354a.993.993,0,0,1-.115-.08l-.1-.088L12.782,55.456a1,1,0,0,1,1.352-1.469l.093.085L24.234,64.516v-15.2l-6.55-6.55a1,1,0,0,1,1.32-1.5l.094.083,5.135,5.135V38.146a1,1,0,0,1,1.993-.117l.006.117v8.338l5.135-5.135a1,1,0,0,1,1.32-.083l.095.083a1,1,0,0,1,.083,1.32l-.083.094-6.55,6.55V63.5l9.032-9.424A1,1,0,0,1,36.79,55.36l-.081.1L26.234,66.386ZM2.709,10.039a8.036,8.036,0,0,0,1.453,4.625,1,1,0,0,1,.18.563,4.954,4.954,0,0,0,4.693,4.9l.216,0h6.064a11.937,11.937,0,0,1,2-2.68A11.771,11.771,0,0,1,30.05,14.812a4.954,4.954,0,0,0-4.687-4.59l-.23,0a1,1,0,0,1-.953-.7A3.693,3.693,0,0,0,20.668,6.93a3.652,3.652,0,0,0-1.432.291,1,1,0,0,1-1.3-.509A7.958,7.958,0,0,0,2.709,10.039ZM59.1,39.387a6.852,6.852,0,0,1-4.7-1.865,6.956,6.956,0,0,1-2.191-4.549l-.01-.161-.032-.046a10.061,10.061,0,0,1-1.607-5.1l-.006-.368a9.956,9.956,0,0,1,18.494-5.2l.147.251.183-.041a5.7,5.7,0,0,1,.848-.107l.287-.007A5.661,5.661,0,0,1,75.577,25.3l.1.209.264.031a6.91,6.91,0,0,1,4.172,2.222,6.98,6.98,0,0,1,1.795,4.432l0,.238A6.943,6.943,0,0,1,75,39.387ZM52.556,27.294a8.032,8.032,0,0,0,1.454,4.625,1,1,0,0,1,.181.562A4.949,4.949,0,0,0,59.1,37.387H75a4.957,4.957,0,0,0,0-9.914l-.136-.007a1,1,0,0,1-.836-.691,3.681,3.681,0,0,0-3.513-2.588,3.62,3.62,0,0,0-1.431.291,1,1,0,0,1-1.3-.508,7.958,7.958,0,0,0-15.224,3.326Z" transform="translate(18.204 16.489)"/></svg>