<svg xmlns="http://www.w3.org/2000/svg" width="94" height="94" viewBox="0 0 94 94"><defs><style>.a{opacity:0.2;}.b{fill:#55efc4;}.c{fill:#05386b;}</style></defs><g class="a" transform="translate(28.983 18.017)"><circle class="b" cx="18.017" cy="18.017" r="18.017"/></g><g transform="translate(15.667 13.317)"><path class="c" d="M48.192,63.043a17.684,17.684,0,0,1-5.213-12.587,1.786,1.786,0,0,1,1.784-1.784h3.5a1.786,1.786,0,0,1,1.784,1.784,10.6,10.6,0,0,0,.535,3.339,1.789,1.789,0,0,1-.443,1.809L48.351,57.4l.049.09a14.374,14.374,0,0,0,5.348,5.347l.09.05,1.791-1.789a1.8,1.8,0,0,1,1.261-.522,1.746,1.746,0,0,1,.433.054l.482.148a10.642,10.642,0,0,0,2.974.421,1.786,1.786,0,0,1,1.784,1.784v3.494a1.786,1.786,0,0,1-1.784,1.784A17.684,17.684,0,0,1,48.192,63.043ZM44.545,50.456A16.251,16.251,0,0,0,60.779,66.689.22.22,0,0,0,61,66.472V62.978a.221.221,0,0,0-.217-.218,12.193,12.193,0,0,1-3.83-.613.188.188,0,0,0-.06-.01.22.22,0,0,0-.152.063l-2.2,2.2a.783.783,0,0,1-.911.144A15.987,15.987,0,0,1,49.6,61.618a15.794,15.794,0,0,1-2.915-4.01.781.781,0,0,1,.144-.909l2.2-2.2a.217.217,0,0,0,.059-.22,12.135,12.135,0,0,1-.611-3.82.22.22,0,0,0-.217-.217h-3.5A.22.22,0,0,0,44.545,50.456ZM32.94,61.684a9.608,9.608,0,0,1-9.8-9.072l0-.232V48.119a.783.783,0,0,1,1.562-.091l0,.091V52.38a8.012,8.012,0,0,0,8.014,7.735l.226,0h4.511a.783.783,0,0,1,.092,1.562l-.092,0ZM10.459,45.076a.783.783,0,0,1-.091-1.561l.091-.006H37.244a.783.783,0,0,1,.091,1.562l-.091,0Zm2.119-3.18a.783.783,0,0,1-.092-1.562l.092-.006H22.694a7.917,7.917,0,0,1-1.747-3.543,14.241,14.241,0,0,1-.027-5.376l.051-.3a21.272,21.272,0,0,1,2.067-6.144l.044-13.857q-.229.013-.477.033a14.146,14.146,0,0,0-3.469.876l-1.346.46a14.119,14.119,0,0,1-3.708.9c-.247.019-.492.028-.728.028a8.616,8.616,0,0,1-3.635-.821l-.288-.132L9.113,12.3l4.612,15.418h.083a1.233,1.233,0,0,1,.951.439,1.719,1.719,0,0,1,.379,1.35A7.435,7.435,0,0,1,12.6,34.131a7.736,7.736,0,0,1-10.053,0A7.434,7.434,0,0,1,.017,29.5a1.714,1.714,0,0,1,.378-1.349,1.23,1.23,0,0,1,.952-.44h.08l5.029-16.8a1.007,1.007,0,0,1,.086-.169l0-.024.02-.086.016-.049.051-.111.047-.073.03-.039.059-.063.026-.025.039-.033.072-.051.029-.016.05-.026.028-.013.083-.03c.025-.007.053-.013.087-.02l.057-.007.075-.019A1.892,1.892,0,0,1,7.783,10a5.815,5.815,0,0,1,1.752.5l.19.07a6.1,6.1,0,0,0,2.142.446,5.589,5.589,0,0,0,1.9-.365l.387-.14c.817-.3,1.717-.653,3.01-1.188l4.08-1.7c.369-.149.664-.267,1.017-.4a5.564,5.564,0,0,1,.84-.257L23.1,4.232h-.047a.777.777,0,0,1-.45-.142,2.251,2.251,0,1,1,2.588,0,.782.782,0,0,1-.452.143h-.072l-.009,2.714a5.414,5.414,0,0,1,.831.246l.8.31c.467.185.986.4,1.851.76l2.753,1.154c1.358.563,2.268.919,3.141,1.229a5.592,5.592,0,0,0,1.9.365,6.1,6.1,0,0,0,2.142-.446l.529-.193A4.5,4.5,0,0,1,40.015,10a1.732,1.732,0,0,1,.389.049l.231.059.094.015a.783.783,0,0,1,.419.319,1.156,1.156,0,0,1,.427.545l5,16.732h.084a1.232,1.232,0,0,1,.951.439,1.717,1.717,0,0,1,.379,1.349,7.438,7.438,0,0,1-2.534,4.628,7.736,7.736,0,0,1-10.053,0A7.431,7.431,0,0,1,32.872,29.5a1.715,1.715,0,0,1,.378-1.349,1.23,1.23,0,0,1,.952-.44h.08l4.652-15.535-.567.266a8.774,8.774,0,0,1-3.925.953c-.235,0-.479-.009-.727-.028l-.286-.025a14.583,14.583,0,0,1-3.2-.792l-1.816-.616a13.374,13.374,0,0,0-3.264-.8c-.171-.014-.339-.025-.5-.034l-.044,13.7.012.032.02.027a18.9,18.9,0,0,1,2.1,6.121l.042.247a14.974,14.974,0,0,1,.022,5.341,8,8,0,0,1-1.783,3.755H35.126a.783.783,0,0,1,.092,1.562l-.092.006Zm9.936-10.514c-.611,3.43-.179,6.062,1.285,7.822l.058.066.109-.128c1.325-1.636,1.779-4.177,1.312-7.347l-.048-.309a24.409,24.409,0,0,0-1.082-4.064.786.786,0,0,1-.548.042A25.567,25.567,0,0,0,22.514,31.382Zm11.91-2.091a5.988,5.988,0,0,0,5.811,5.127l.2,0a6.034,6.034,0,0,0,6.009-5.13v-.009H34.423ZM1.6,29.485a6.029,6.029,0,0,0,5.78,4.933l.2,0a6.032,6.032,0,0,0,6.009-5.129v-.011H1.568Zm34.324-1.8H44.94L40.434,12.622Zm-32.855,0h9.017L7.579,12.622ZM25.276,9.575a14.269,14.269,0,0,1,3.6.864l1.372.467.76.252-1.572-.652L26.871,9.43c-.792-.328-1.3-.53-1.937-.774q-.142-.054-.277-.1l0,.973Q24.952,9.549,25.276,9.575Zm-2.451-.9-1.3.522-4.055,1.692-.594.242.913-.307,1.122-.383a14.217,14.217,0,0,1,3.568-.861q.317-.026.611-.041l0-.959Q22.961,8.619,22.826,8.672Zm.389-6.42a.672.672,0,0,0,.1.355l.042.059H24.44l.044-.059a.675.675,0,0,0,.094-.26l.006-.094a.684.684,0,1,0-1.368,0Z" transform="translate(0 0)"/></g></svg>