<svg xmlns="http://www.w3.org/2000/svg" width="94" height="94" viewBox="0 0 94 94"><defs><style>.a{opacity:0.2;}.b{fill:#b84336;}.c{fill:#05386b;}</style></defs><g class="a" transform="translate(28.983 18.017)"><circle class="b" cx="18.017" cy="18.017" r="18.017"/></g><g transform="translate(22.243 12.059)"><path class="c" d="M4.976,70.5A4.981,4.981,0,0,1,0,65.524V4.976A4.981,4.981,0,0,1,4.976,0H42.3a.78.78,0,0,1,.554.229l7.05,7.05a.78.78,0,0,1,.229.554V65.524A4.981,4.981,0,0,1,45.157,70.5ZM1.567,4.976V65.524a3.413,3.413,0,0,0,3.409,3.409H45.157a3.413,3.413,0,0,0,3.409-3.409V9.008H42.209a.784.784,0,0,1-.783-.783V1.567H4.976A3.413,3.413,0,0,0,1.567,4.976ZM42.992,7.441h4.376L42.992,3.065ZM7.833,62.275a.783.783,0,0,1-.091-1.561l.091-.006H41.517a.783.783,0,0,1,.091,1.562l-.091,0Zm0-5.8a.783.783,0,0,1-.091-1.562l.091-.006H41.517a.783.783,0,0,1,.091,1.562l-.091.006Zm0-5.8a.783.783,0,0,1-.091-1.562l.091,0H41.517a.783.783,0,0,1,.091,1.562l-.091,0Zm0-5.8a.783.783,0,0,1-.091-1.561l.091-.006H35.25a.783.783,0,0,1,.092,1.562l-.092,0Zm0-5.8a.783.783,0,0,1-.091-1.562l.091,0H42.3a.783.783,0,0,1,.092,1.561l-.092.006Zm9.783-6.972a.783.783,0,0,1-.091-1.562l.091-.006h6.067a11.794,11.794,0,0,1-.5-5.236L23.214,25a21.156,21.156,0,0,1,.716-3.891l.008-.025a.164.164,0,0,1,.006-.045l.029-9.08a10.723,10.723,0,0,0-1.175.385l-1.182.45a9.366,9.366,0,0,1-1.77.525,3.583,3.583,0,0,1-2.472-.424l2.514,6.3a1.029,1.029,0,0,1,.661.347,1.536,1.536,0,0,1,.335,1.189A6,6,0,0,1,19.194,24.3a4.715,4.715,0,0,1-6.786,0,6.009,6.009,0,0,1-1.69-3.566,1.539,1.539,0,0,1,.336-1.191,1.028,1.028,0,0,1,.659-.345L14.823,11.4a1.012,1.012,0,0,1,.978-.615,1.3,1.3,0,0,1,.15.009.781.781,0,0,1,.132-.043l.094-.016a1.63,1.63,0,0,1,1.019.226l.218.128c.2.123.455.28.473.292a2.217,2.217,0,0,0,1.687.391l.19-.037a9.576,9.576,0,0,0,1.337-.424l1.145-.436a9.838,9.838,0,0,1,1.7-.515l.033-.006,0-1.5a.784.784,0,0,1-.2-.1,1.714,1.714,0,1,1,1.97,0,.776.776,0,0,1-.2.1l0,1.484.071.013.232.048a9.875,9.875,0,0,1,1.311.406l1.324.5a8.3,8.3,0,0,0,1.528.462,2.114,2.114,0,0,0,1.526-.3l.173-.1c.087-.055.539-.338.679-.412a1.709,1.709,0,0,1,.883-.238l.132.012.09.014a.779.779,0,0,1,.321.153,1.151,1.151,0,0,1,.516-.117,1,1,0,0,1,.977.613l3.109,7.794a1.027,1.027,0,0,1,.66.347,1.533,1.533,0,0,1,.335,1.189A6,6,0,0,1,37.725,24.3a4.714,4.714,0,0,1-6.785,0,6.01,6.01,0,0,1-1.691-3.566,1.542,1.542,0,0,1,.337-1.191,1.028,1.028,0,0,1,.659-.345l2.685-6.727-.416.253a3.718,3.718,0,0,1-2.773.6,10.127,10.127,0,0,1-1.959-.6l-.966-.369a10.2,10.2,0,0,0-1.276-.413l-.029,9.1.028.06a15.03,15.03,0,0,1,.742,4.659,14.239,14.239,0,0,1-.554,4.793h6.2a.783.783,0,0,1,.092,1.562l-.092.006Zm7.1-6.241L24.709,26c-.029.52-.035,1.016-.016,1.475l.02.384.011-.161a15.818,15.818,0,0,0,0-1.608l-.012-.217h0Zm6.148-4.956a3.787,3.787,0,0,0,3.309,3.246l.16,0A3.767,3.767,0,0,0,37.8,20.918l.03-.166h-7Zm-18.53,0a3.785,3.785,0,0,0,3.309,3.246l.16,0a3.768,3.768,0,0,0,3.467-3.251l.03-.166h-7Zm19.608-1.751h4.781l-2.39-5.991Zm-18.531,0h4.781L15.8,13.178Z" transform="translate(0 0)"/></g></svg>