<svg xmlns="http://www.w3.org/2000/svg" width="190" height="95" viewBox="0 0 190 95"><defs><style>.a{fill:#e53b12;}.b{fill:#fff;}.c{fill:#fefefe;}</style></defs><g transform="translate(0 14.844)"><path class="a" d="M0,62.344H190V0H0Z"/><path class="b" d="M59.87,28.154a9.125,9.125,0,0,1-8.459-6.582c1.308-.5,3.962-1.59,5.2-2.083a4.439,4.439,0,0,0,4.327,3.976,2.75,2.75,0,0,0,2.745-2.389c.051-1.849-1.588-2.729-3.057-3.627a59.277,59.277,0,0,1-5.457-3.469c-3.2-2.617-2.39-7.592-2.263-7.984.167-.624.911-5.757,8.265-5.95,7.393-.222,7.918,5.807,7.918,5.807s-3.7,1.6-4.927,2.129c-.23-4.239-5.708-4.33-5.594-.7.142,2.6,2.9,2.35,7.113,5.04,4.919,3,4.561,8.471,3.192,11.623h0c-1.532,3.458-4.782,4.262-7.7,4.262C60.729,28.2,60.292,28.185,59.87,28.154Zm-19.649-.039a9.123,9.123,0,0,1-8.458-6.582c1.307-.5,3.962-1.59,5.2-2.083a4.439,4.439,0,0,0,4.327,3.976,2.75,2.75,0,0,0,2.745-2.389c.051-1.849-1.587-2.731-3.055-3.627a59.12,59.12,0,0,1-5.459-3.469c-3.2-2.617-2.39-7.593-2.262-7.984.166-.624.91-5.757,8.264-5.952,7.393-.222,7.918,5.809,7.918,5.809s-3.7,1.6-4.927,2.129c-.23-4.239-5.707-4.33-5.592-.7.142,2.6,2.9,2.35,7.111,5.04,4.92,3,4.562,8.471,3.19,11.621h0c-1.531,3.458-4.781,4.262-7.7,4.262C41.08,28.165,40.643,28.146,40.221,28.115Zm-34.978.043L2.128,18.016H0V12.3l3,0A2.942,2.942,0,0,0,5.818,9.241C5.818,7.653,4.56,5.968,3,5.968l-3,0V.023H3C9.01.3,12.63,3.892,12.63,9.248a8.219,8.219,0,0,1-3.993,7.393c.62,2.037,3.335,10.785,3.5,11.517-.851,0-3.12.006-4.879.006C6.378,28.164,5.626,28.163,5.244,28.158Z" transform="translate(103.906 17.812)"/><path class="b" d="M68.9,28.2H62.212V0h16.46V4.975H68.9v6.358h9.768v4.979H68.9v6.909h9.768V28.2Zm-26.961,0V0h6.692V28.2Zm-20.235,0V0h9.433c5.956.277,9.548,3.878,9.548,9.249s-3.86,8.851-9.548,8.782l-2.741.005V28.2Zm9.433-15.9a2.938,2.938,0,0,0,2.792-3.061c0-1.592-1.25-3.281-2.792-3.281H28.4V12.3ZM13.183,28.2,6.658,14.244,0,0H7.027L20.443,28.2Z" transform="translate(56.406 17.813)"/><path class="b" d="M39.017,28.2,52.377,0h7L46.247,28.2Zm-10.96,0H21.394V0H37.786V4.975H28.057v6.358h9.728v4.979H28.057v6.909h9.728V28.2ZM0,28.2V0H6.665V28.2ZM8.533,0h9.233L8.533,13.512Z" transform="translate(16.328 17.813)"/><path class="c" d="M0,4.453H8.906V0H0Z" transform="translate(23.75 41.563)"/></g></svg>