<svg xmlns="http://www.w3.org/2000/svg" width="190.172" height="95" viewBox="0 0 190.172 95"><defs><style>.a{fill:#db3540;}</style></defs><g transform="translate(0)"><path class="a" d="M125.406,38.717a15.052,15.052,0,0,1-5.03-2.944,14.513,14.513,0,0,1-3.4-4.648,14.872,14.872,0,0,1-1.2-6.008,14.878,14.878,0,0,1,1.2-6.038,14.086,14.086,0,0,1,3.4-4.636,15.124,15.124,0,0,1,5.03-2.95,19.2,19.2,0,0,1,12.327,0,15.406,15.406,0,0,1,5.019,2.962,14.247,14.247,0,0,1,3.337,4.637,15.279,15.279,0,0,1,0,12.033,14.642,14.642,0,0,1-3.337,4.648,15.313,15.313,0,0,1-5.019,2.944,19.167,19.167,0,0,1-12.327,0Zm-41.476.351V22.45a7.609,7.609,0,0,0-.41-2.047,3.725,3.725,0,0,0-1.156-1.678,3.317,3.317,0,0,0-2.3-.7,5.3,5.3,0,0,0-2.749.607,4,4,0,0,0-1.594,1.611,6.221,6.221,0,0,0-.711,2.263,18.725,18.725,0,0,0-.162,2.637V39H65.991V11.154H74.4v3.825h.12a6.5,6.5,0,0,1,1.178-1.6,7.669,7.669,0,0,1,1.8-1.46,11.863,11.863,0,0,1,2.4-1.035,11,11,0,0,1,2.891-.382,11.162,11.162,0,0,1,5.3,1.186,7.358,7.358,0,0,1,3.46,3.807,9.874,9.874,0,0,1,3.693-3.852,11.17,11.17,0,0,1,5.326-1.142,10.971,10.971,0,0,1,4.841.961A7.736,7.736,0,0,1,108.522,14a10.445,10.445,0,0,1,1.643,3.833,21.915,21.915,0,0,1,.489,4.737V39.015h-8.777V22.8a6.35,6.35,0,0,0-.827-3.333,3.226,3.226,0,0,0-3.034-1.391,6.418,6.418,0,0,0-2.533.469,4.248,4.248,0,0,0-1.62,1.393,5.63,5.63,0,0,0-.9,1.993,11.364,11.364,0,0,0-.24,2.413V39.068Zm-50.786,0V24.287a14,14,0,0,0-.092-1.837,7.047,7.047,0,0,0-.39-2.047,4.175,4.175,0,0,0-1.128-1.678,3.466,3.466,0,0,0-2.318-.7,5.348,5.348,0,0,0-2.764.607,4.076,4.076,0,0,0-1.588,1.611,6.567,6.567,0,0,0-.708,2.263,18.33,18.33,0,0,0-.171,2.637V39H15.2V11.154h8.4v3.825h.12a7.236,7.236,0,0,1,1.169-1.6,8.439,8.439,0,0,1,1.808-1.46,12.206,12.206,0,0,1,2.425-1.071,11.991,11.991,0,0,1,8.209.8,7.627,7.627,0,0,1,3.487,3.806A9.446,9.446,0,0,1,44.5,11.6a11.18,11.18,0,0,1,5.317-1.141,10.913,10.913,0,0,1,4.82.962A7.827,7.827,0,0,1,57.722,14a11,11,0,0,1,1.651,3.833,22.883,22.883,0,0,1,.469,4.737V39.015H51.093V22.8a6.39,6.39,0,0,0-.851-3.333,3.219,3.219,0,0,0-3.013-1.391,6.515,6.515,0,0,0-2.557.469,4.233,4.233,0,0,0-1.6,1.393,5.6,5.6,0,0,0-.892,1.993,10.633,10.633,0,0,0-.24,2.413V39.068ZM.118,39.023V18.346L8.9,12.889V39.023ZM0,5.99,9,0V10.118l-9,5.4Zm65.985,5.163h.007Z" transform="translate(21.055 39.704)"/><path class="a" d="M157.945,14.451C157.945,8.022,162.266,0,174.157,0V.02c9.238,0,16.014,5.572,16.014,14.817,0,9.722-7.106,14.683-16.131,14.683C163.909,29.52,157.945,22.987,157.945,14.451Zm-105.3-.309C52.647,8.148,57.306,0,68.473,0c6.252,0,8.953,2.576,8.953,2.576V.429h6.291V10.472H77.4A7.632,7.632,0,0,0,70.48,6.079c-3.837,0-6.808,2.807-6.808,7.945,0,8.724,4.78,9.461,6.872,9.461,4.255,0,5.22-3.033,5.22-4.251h-3.95V13.961H85.42l-.061,3.678c0,.7-.711,11.862-15.955,11.862C58.419,29.5,52.647,23.184,52.647,14.142ZM104.172,29V23.241h1.575c.607,0,1.631-.366,1.32-1.341l-.863-2.711H98.082s-.54,1.571-.843,2.569c-.262.856-.083,1.483.709,1.483H99.8V29H86.463V22.939h1.578a2.027,2.027,0,0,0,2.127-1.4C90.516,20.663,97.924.429,97.924.429H108.86s6.891,18.206,7.493,19.652c.733,1.77,1.1,2.863,2.321,2.863v0h1.594V29ZM0,29V22.946H2.475a1.153,1.153,0,0,0,1.206-1.091V8.012c0-.864-.136-1.5-1.32-1.5H0V.429H30.049V9.609H22.7V8.052a1.445,1.445,0,0,0-.454-1.144,1.482,1.482,0,0,0-1.177-.393H14.408v5.151h6.159v5.539H14.408v4.133c0,1.137.489,1.607,1.956,1.607H18.7V29Zm147.673,0L140.69,16.942h-3.8v4.6c0,.737.139,1.4,1.329,1.4h1.746v6.038H122.886V22.923h1.853c1.332,0,1.419-.808,1.419-1.4V7.91c0-.808-.163-1.4-1.356-1.4h-1.916V.421h19.371a40.616,40.616,0,0,1,7.043.737c1.885.5,6.314,2.386,6.314,7.72a7.066,7.066,0,0,1-4.959,6.74s3.4,5.318,3.949,6.056.72,1.269,1.813,1.269h1.966V29ZM32.887,29V22.943H35.1c.772,0,1.419-.23,1.419-1.289V7.917c0-.856-.171-1.4-1.355-1.4H32.905V.429H50.632V6.541H48.42c-1.033,0-1.353.323-1.353,1.4h-.019V21.617c0,.978.553,1.327,1.419,1.327h2.148V29ZM0,.429H0Z" transform="translate(0 11.937)"/></g></svg>