<svg xmlns="http://www.w3.org/2000/svg" width="190.001" height="95" viewBox="0 0 190.001 95"><defs><style>.a{fill:#163860;}.b{fill:#4a90e2;}</style></defs><g transform="translate(0)"><g transform="translate(0 16.328)"><path class="a" d="M150.536,61.29H140.227l-6.545-11.307H130v4.28c0,.639.156,1.293,1.309,1.293h1.637V61.21H116.665V55.556h1.8c1.153,0,1.308-.694,1.308-1.373V41.5c0-.713-.158-1.373-1.308-1.373h-1.8V34.475h18.491a46.676,46.676,0,0,1,6.708.647c2.762.867,6.054,2.831,6.054,7.269a6.218,6.218,0,0,1-2.373,5.028,7.418,7.418,0,0,1-2.373,1.272c.026.04,3.2,5.022,3.763,5.654.061.09.117.176.17.258a1.549,1.549,0,0,0,1.548.953h1.882v5.732ZM130,39.887V45.3h3.682q.137,0,.271,0a3.985,3.985,0,0,0,2.434-.656,2.287,2.287,0,0,0,.9-1.934c0-2.623-2.443-2.827-3.192-2.827ZM48.352,61.29H31.416V55.636h2.127c.562,0,1.309-.126,1.309-1.212V41.5c0-.857-.2-1.292-1.309-1.292H31.416V34.557H48.352V40.21H46.225c-.979,0-1.309.326-1.309,1.292V54.425c0,.8.468,1.212,1.391,1.212h2.045v5.652Zm-30.517,0H0V55.636H2.373a.893.893,0,0,0,.126.009,1.1,1.1,0,0,0,1.019-.978V41.5c0-.8-.088-1.373-1.226-1.373H0V34.475H28.634v8.642H21.681V41.745a1.233,1.233,0,0,0-.273-.918,1.5,1.5,0,0,0-1.036-.537H13.744v4.847h5.891v5.089H13.744V54.1c0,1.133.493,1.535,1.882,1.535h2.208v5.652Zm76.823-.079H81.894V55.556h1.474c.056.005.113.008.171.008a2.148,2.148,0,0,0,1.956-1.3l7.362-19.788h10.391l7.2,18.416.121.3.014.035c.563,1.4.934,2.33,2.075,2.33h1.391v5.652h-15.3V55.8H100.3a1.507,1.507,0,0,0,1.172-.487.752.752,0,0,0,.056-.725L100.711,52h-7.69L92.2,54.425c-.163.536-.163.9,0,1.125a.766.766,0,0,0,.653.249h1.8V61.21Zm2.208-20.678-2.617,7.834h5.317l-2.618-7.834h-.082ZM165.425,61.21c-4.622,0-8.508-1.32-11.239-3.816a12.807,12.807,0,0,1-4.06-9.753c0-6.073,4.007-13.166,15.3-13.166,4.458,0,8.263,1.212,11,3.5a12.538,12.538,0,0,1,4.378,9.985c0,4.32-1.493,7.689-4.439,10.015C173.692,60.093,169.908,61.21,165.425,61.21Zm.164-21.485c-3.074,0-4.91,2.778-4.91,7.43,0,3.35.557,5.782,1.657,7.228a4.112,4.112,0,0,0,3.5,1.656c3.094,0,4.662-2.826,4.662-8.4C170.5,42.315,168.892,39.725,165.589,39.725ZM65.532,61.21c-10.086,0-15.871-5.064-15.871-13.892a12.35,12.35,0,0,1,3.579-8.541c1.923-1.962,5.489-4.3,11.556-4.3,5.905,0,8.483,2,8.509,2.02v-2.02h5.973v9.45H73.223a7.355,7.355,0,0,0-6.545-4.119c-3.977,0-6.546,2.917-6.546,7.43,0,3.491.853,6,2.537,7.47a6.042,6.042,0,0,0,4.009,1.414c4.093,0,4.99-2.915,4.99-4.039H67.9V47.156H80.912l-.082,3.392a10.3,10.3,0,0,1-2.188,5.6,11.762,11.762,0,0,1-4.576,3.495A21.014,21.014,0,0,1,65.532,61.21Zm-5-34.4H32.471V21.161h1.636c.881,0,1.309-.37,1.309-1.132v-13c0-.8-.088-1.373-1.228-1.373H32.554L32.471,0H60.534V8.642H53.5V7.269c0-1.047-.572-1.535-1.8-1.535H45.562v4.847h6.626v5.169H45.644v5.412h6.382a1.287,1.287,0,0,0,.139.008,1.387,1.387,0,0,0,1.333-1.3V18.253h7.036v8.561Zm-31.007-.082H1.383V21.08H3.347c.962,0,1.391-.374,1.391-1.212V7.027c0-.8-.083-1.293-1.228-1.293H1.383V0H18.4V5.654H16.355c-1.107,0-1.309.462-1.309,1.373V19.95a1.252,1.252,0,0,0,1.228,1.212h4.99a1.154,1.154,0,0,0,.124.007,1.442,1.442,0,0,0,1.349-1.3V15.1h6.791V26.732Z" transform="translate(9.194 0)"/><path class="b" d="M36.767,35.236l-1.094-.844a35.638,35.638,0,0,0-3.842-3.787c-.41-.353-.875-.753-1.5-1.309a23.521,23.521,0,0,0-5.085-3.481L22.878,24.8V23.523H25.76a53.591,53.591,0,0,0,3.813,3.906,41.808,41.808,0,0,1,7.2,7.8ZM18.98,23.523h0a31.361,31.361,0,0,1-10-4.756l2.623.169a.289.289,0,0,1-.039-.019c-1.029-.542-6.245-3.344-7.923-5.33a14.175,14.175,0,0,0,2.534.677l-.008,0A11.382,11.382,0,0,1,3.7,12.2,15.813,15.813,0,0,1,0,5.1,3.369,3.369,0,0,0,1.356,6.2,22.163,22.163,0,0,1,.254,0C.3.056,5.364,5.867,11.27,7.643a.057.057,0,0,0,.043-.019c.05-.054.037-.214.025-.355a.467.467,0,0,1,0-.215.015.015,0,0,1,.012-.005,15.666,15.666,0,0,1,7.626,7.643v8.832Z" transform="translate(0 26.048)"/></g></g></svg>