<svg xmlns="http://www.w3.org/2000/svg" width="190" height="95" viewBox="0 0 190 95"><defs><style>.a{fill:#fff;}.b{fill:#1ea0e6;}.c{fill:#f03333;}</style></defs><g transform="translate(0 13.359)"><rect class="a" width="190" height="69.766"/><rect class="b" width="190" height="62.344"/><rect class="c" width="190" height="4.453" transform="translate(0 65.313)"/><g transform="translate(7.422 7.422)"><path class="a" d="M16.377,38.336H0V0H7.019V33.689h9.358v4.647Z" transform="translate(0 13.94)"/><path class="a" d="M0,15.334C0,1.975,5.615,0,9.242,0c3.274.116,7.6,2.439,7.6,8.829,0,7.551-7.135,10.92-10.177,11.152.351,4.414,2.339,6.156,4.446,6.156a10.143,10.143,0,0,0,1.988-.116v4.531a13.54,13.54,0,0,1-2.457.231C6.083,30.784,0,28.228,0,15.334Z" transform="translate(15.09 21.607)"/><path class="a" d="M0,52.275V0H6.9c8.423,0,16.261,4.065,16.261,15.915A19.673,19.673,0,0,1,8.189,35.432V52.275Z" transform="translate(38.604)"/><path class="a" d="M0,24.047a15.222,15.222,0,0,1,12.049-15.1v-.7c0-1.975-1.17-2.9-3.158-2.9a19.829,19.829,0,0,0-4.68.581L4.328.581A17.562,17.562,0,0,1,9.358,0c5.615,0,9.71,2.439,9.71,10.106V35.316H11.933V32.992L9.826,35.316a3.308,3.308,0,0,1-.935.116C4.211,35.432,0,30.669,0,24.047Z" transform="translate(59.426 16.961)"/><path class="a" d="M12.868,5.808h0c-3.626,0-5.849,2.9-5.849,6.97V34.851H0V.349L5.849,0V2.788A9.222,9.222,0,0,1,12.283.116h.585V5.808Z" transform="translate(81.886 17.425)"/><path class="a" d="M0,45.306V10.455H7.019V45.306ZM0,6.97V0H7.019V6.97Z" transform="translate(97.094 6.97)"/><path class="a" d="M18.249,25.441c0,6.041-5.264,10.107-11.464,10.107A16.9,16.9,0,0,1,0,34.386l2.925-5.228a7.279,7.279,0,0,0,3.158.581c2.34,0,4.211-1.51,4.211-3.6,0-2.44-.936-4.182-3.626-7.319C1.989,14.4.819,12.314.819,8.713.819,3.834,5.264,0,10.879,0a15.475,15.475,0,0,1,5.849,1.046L14.038,5.925A6.114,6.114,0,0,0,11.23,5.46,2.878,2.878,0,0,0,8.189,8.132c0,1.394.585,2.672,3.626,5.46,4.328,4.066,6.434,6.97,6.434,11.849Z" transform="translate(105.633 16.844)"/><path class="a" d="M0,45.306V10.455H7.019V45.306ZM0,6.97V0H7.019V6.97Z" transform="translate(125.169 6.97)"/><path class="a" d="M0,17.657C0,2.207,6.551,0,10.762,0c4.095.116,9.124,2.788,9.124,10.106,0,8.713-8.306,12.547-11.815,12.894.351,5.111,2.223,7.087,4.68,7.087a4.936,4.936,0,0,0,1.754-.116V35.2a7.933,7.933,0,0,1-2.457.232C6.785,35.432,0,32.527,0,17.657Z" transform="translate(133.943 16.961)"/><path class="a" d="M19.887,35.315H12.868V10.339c0-2.44-1.17-4.531-2.925-4.531S7.019,7.9,7.019,10.339V35.315H0V.465H5.849V2.207L8.423.116A3.662,3.662,0,0,1,9.709,0C16.026,0,20,3.834,20,12.082V35.315Z" transform="translate(155.584 16.961)"/></g></g></svg>