<svg xmlns="http://www.w3.org/2000/svg" width="190" height="95" viewBox="0 0 190 95"><defs><style>.a{fill:#034ea2;}</style></defs><g transform="translate(0 0)"><path class="a" d="M13.015,68.723c-2.073,2.486-2.768,5.765-3.8,8.817H0V0H16.93V27.351h.458c2.879-5.651,7.719-8.363,14.283-8.363,16.7,0,21.766,16.276,21.766,29.841,0,15.035-6.1,29.844-23.725,29.844C21.3,78.672,17.272,75.619,13.015,68.723Z" transform="translate(0 16.328)"/><path class="a" d="M0,75.7H17.813V0H0Z" transform="translate(54.922 17.813)"/><path class="a" d="M0,30.475C0,13.607,10.078,0,27.969,0,36,0,44.272,3.6,49.028,10.122s6,14.619,5.887,22.374H18l-.114,2.815c0,6.746,3.849,12.256,11.094,12.256,5.1,0,10.192-3.711,10.192-9l15.4,1.125c0,2.811-6.68,19.68-26.155,19.68C11.211,59.374,0,47.454,0,30.475Z" transform="translate(74.219 35.625)"/><path class="a" d="M33.567,58.228V48.256h-.228c-2.72,7.338-8.616,11.119-16.438,11.119-5.782,0-10.771-1.262-14.056-6.536C-.331,47.8.011,42.3.011,36.68V0H16.677V36.68c0,4.7.451,9.167,6.347,9.167a9.023,9.023,0,0,0,8.392-5.615c1.13-2.635.907-5.961.907-8.941V0H48.984V58.228H33.567" transform="translate(132.109 35.625)"/><path class="a" d="M7.915,28.2H2.267V12.786H0V8.175H2.267c0-1.782-.076-3.926.886-5.464A6.453,6.453,0,0,1,8.646,0a19.073,19.073,0,0,1,3.229.283V4.855a12.744,12.744,0,0,0-2.15-.12c-1.809,0-1.809,1.256-1.809,2.993v.446h3.46v4.612H7.915V28.2" transform="translate(75.703 0)"/><path class="a" d="M5.961.415V4.222h.086C6.7,2.058,8.005-.185,10.786.012L11.875.1V5.987C7,5.746,6.394,9.4,6.394,13.005v7.776H0V.415H5.961" transform="translate(89.063 7.422)"/><path class="a" d="M0,15.113c0-2.954,1.909-4.958,4.63-5.942C6.987,8.3,10.277,8.148,12.8,7.911V7.438A4,4,0,0,0,12.269,4.8a3.148,3.148,0,0,0-2.437-.946c-1.909,0-3.578.946-3.578,2.911L.608,6.256C1.221,1.419,6.095,0,10.44,0c2.113,0,4.875.473,6.543,1.81,2.109,1.655,1.909,3.857,1.909,6.256v9.328a9.4,9.4,0,0,0,.4,2.992h-5.93a11.521,11.521,0,0,1-.285-3.11A7.289,7.289,0,0,1,6.5,20.782C2.846,20.782,0,18.89,0,15.113Z" transform="translate(100.938 7.422)"/><path class="a" d="M0,.4H5.626v3.45h.08C6.922,1.245,8.621,0,11.62,0a6.025,6.025,0,0,1,5.06,2.248c1.132,1.525,1.132,4.09,1.132,5.935v12.6H11.863V9.831c0-2.086.283-5.137-2.716-5.137A2.853,2.853,0,0,0,6.639,6.22a7.4,7.4,0,0,0-.69,3.612v10.95H0V.4" transform="translate(123.203 7.422)"/><path class="a" d="M13.622,7.989c0-1.81-.97-3.582-3.123-3.582-3.283,0-3.686,3.151-3.686,5.706,0,2.442.04,5.9,3.446,5.9,2.109,0,3.163-1.613,3.363-3.462l5.675.314c-.483,4.958-4.337,7.912-9.365,7.912C3.69,20.781,0,16.49,0,10.586,0,4.45,3.81,0,10.3,0c4.784,0,8.594,2.993,9,7.675l-5.675.314" transform="translate(142.5 7.422)"/><path class="a" d="M0,10.667C0,4.764,3.543,0,9.827,0a9.256,9.256,0,0,1,7.4,3.543,12.748,12.748,0,0,1,2.069,7.83H6.324l-.039.985c0,2.361,1.352,4.291,3.9,4.291A3.429,3.429,0,0,0,13.766,13.5l5.408.4c0,.985-2.347,6.889-9.189,6.889C3.938,20.782,0,16.607,0,10.667Z" transform="translate(161.797 7.422)"/></g></svg>