<svg xmlns="http://www.w3.org/2000/svg" width="190" height="95" viewBox="0 0 190 95"><defs><style>.a{fill:#003865;}</style></defs><g transform="translate(0 2.969)"><path class="a" d="M172.437,32.515a8.781,8.781,0,1,1,8.78,8.725A8.752,8.752,0,0,1,172.437,32.515ZM41.513,20.623C41.513,9.251,50.108,0,60.673,0S79.832,9.251,79.832,20.623a22.322,22.322,0,0,1-.223,3.147l-.045.311H49.643l.127.423a11.56,11.56,0,0,0,10.9,8.466,10.853,10.853,0,0,0,7.337-2.878c.005-.005.561-.5.629-.573h9.326l-.263.548A19,19,0,0,1,60.673,41.24C50.108,41.24,41.513,31.992,41.513,20.623Zm8.257-3.885-.127.422H71.7l-.128-.422a11.249,11.249,0,0,0-21.8,0ZM150.5,38.068a35.448,35.448,0,0,1-10-1.739V29.122h.378a38.6,38.6,0,0,0,9.623,1.542h1.85c2.938,0,5.166-.945,5.166-4.076,0-2.335-1.944-3.278-4.077-3.876l-5.547-1.54c-4.076-1.093-7.393-4.076-7.393-10.487C140.5,3.131,146.429,0,153.633,0h1.849A32.109,32.109,0,0,1,164.2,1.392V8.549h-.379a41.673,41.673,0,0,0-8.342-1.142h-1.659c-2.606,0-4.835.545-4.835,3.278,0,2.139,1.516,2.982,3.367,3.479l5.545,1.59c5.354,1.491,8.151,4.821,8.151,10.834,0,8.35-5.734,11.48-13.7,11.48Zm-35.432,0a100.943,100.943,0,0,1-5.7-18.716,103.124,103.124,0,0,1-5.65,18.716H91.588A145.141,145.141,0,0,1,81.428.227V0h9.747c1.19,9.181,4.25,23.736,6.893,30.316,2.8-6.581,6.065-21.137,7.259-30.316h8.085c1.244,9.181,4.459,23.126,7.309,30.316,2.645-7.19,5.65-21.137,6.895-30.316h9.694V.227c-2.227,14.332-6.479,29.069-10.109,37.84Zm-88.571,0h0V18.416a11.513,11.513,0,0,0-.641-4.2,9.126,9.126,0,0,0-1.933-3.079,8.347,8.347,0,0,0-2.8-1.928,9.046,9.046,0,0,0-6.924,0,8.519,8.519,0,0,0-2.816,1.938,9.285,9.285,0,0,0-1.95,3.085,11.559,11.559,0,0,0-.819,4.2V38.068H0V18.038a19.6,19.6,0,0,1,1.432-7.273A17.1,17.1,0,0,1,5.211,5.018,16.84,16.84,0,0,1,10.841,1.3,18.6,18.6,0,0,1,24.5,1.295a16.674,16.674,0,0,1,5.628,3.718,16.973,16.973,0,0,1,3.758,5.753,19.506,19.506,0,0,1,1.238,7.29V38.068Z" transform="translate(0 48.605)"/><path class="a" d="M111.487,35.2a21.247,21.247,0,0,1-5.636-14.58,21.247,21.247,0,0,1,5.636-14.58,18.351,18.351,0,0,1,27.217,0,21.249,21.249,0,0,1,5.638,14.58A21.249,21.249,0,0,1,138.7,35.2a18.351,18.351,0,0,1-27.217,0Zm.162-14.582c0,8.269,6.032,15,13.448,15s13.449-6.728,13.449-15-6.033-15-13.449-15S111.648,12.351,111.648,20.619ZM60.836,41.239a16.5,16.5,0,0,1-6.272-1.2,15.109,15.109,0,0,1-5.1-3.424,15.634,15.634,0,0,1-3.415-5.31,18.569,18.569,0,0,1-1.138-6.841V0h4.6V24.062a14.574,14.574,0,0,0,.82,5.234,11.867,11.867,0,0,0,2.466,3.982,10.824,10.824,0,0,0,3.626,2.536,11.364,11.364,0,0,0,8.857,0,10.929,10.929,0,0,0,3.64-2.546A11.97,11.97,0,0,0,71.4,29.286a14.65,14.65,0,0,0,.994-5.229V0h4.59V24.464a18.645,18.645,0,0,1-1.32,6.831,15.833,15.833,0,0,1-3.435,5.31,15.3,15.3,0,0,1-5.115,3.424,16.51,16.51,0,0,1-6.274,1.212ZM0,20.619C0,9.25,8.631,0,19.242,0S38.486,9.25,38.486,20.619c0,.023,0,.047,0,.069s0,.043,0,.063a19.04,19.04,0,0,1-.143,2.956H4.824l.053.262c1.466,7.194,7.507,12.416,14.364,12.416a14.472,14.472,0,0,0,11.923-6.569c.091-.134.274-.411.478-.76h5.185l-.476,1A19.092,19.092,0,0,1,19.242,41.24C8.631,41.24,0,31.989,0,20.619Zm4.656-2.008-.028.239H33.855l-.029-.239c-.942-7.842-7.211-13.756-14.584-13.756S5.6,10.769,4.656,18.611ZM81.793,38.068V16.544a18.212,18.212,0,0,1,.6-4.657,14.9,14.9,0,0,1,2.692-5.475,15.254,15.254,0,0,1,6.128-4.552A27.434,27.434,0,0,1,101.86,0h.783V4.678h-.763a23.627,23.627,0,0,0-7.714,1.107,11.347,11.347,0,0,0-4.525,2.785,9.718,9.718,0,0,0-2.218,3.786,13.926,13.926,0,0,0-.612,4.191V38.068Z"/></g></svg>