<svg xmlns="http://www.w3.org/2000/svg" width="190" height="95" viewBox="0 0 190 95"><defs><style>.a{fill:#026fa4;}</style></defs><path class="a" d="M117.623,80.156A15.715,15.715,0,0,1,107.2,76.735a10.614,10.614,0,0,1-3.8-8.147V43.437h10.977v24.81c0,1.96,1.34,3.178,3.5,3.178,2.181,0,3.536-1.218,3.536-3.178V43.437h10.145V68.588a10.732,10.732,0,0,1-3.586,8.147C125.461,78.973,121.883,80.156,117.623,80.156Zm26.323-1.041h-9.863V43.437h9.334l7.527,12.634,2.291,3.868v-16.5h9.806V79.113h-9l-7.687-12.361-2.4-3.926V79.114Zm-102.84,0H30.2V43.437H46.956c6.486,0,10.358,3.34,10.358,8.933v3.26c0,3.078-1.619,5.178-4.811,6.242a6.245,6.245,0,0,1,3.831,2.25,5.89,5.89,0,0,1,1.174,3.622v5.431a12.35,12.35,0,0,0,1.372,5.79v.15H49.569c-1.63,0-2.509-2.831-2.509-5.495V68.246c0-1.725-.848-2.675-2.389-2.675H41.105V79.114Zm.007-27.706v7.879h3.077c1.827,0,2.572-.624,2.572-2.154V53.558c0-1.506-.769-2.148-2.572-2.148ZM190,79.114H165.21V43.437H190v8.5H176.113V57.8h9.082v6.224h-9.082v6H190v9.09Zm-119.373,0H59.712V43.437H70.627V79.113Zm-51.13,0H8.571V52.236H.212v-8.8H27.9v8.8H19.5V79.113Zm71.24,0H73.514V43.437H90.589A11.167,11.167,0,0,1,97.652,45.6a7.473,7.473,0,0,1,2.811,6.056v2.8a6.947,6.947,0,0,1-1.242,4.076,6.515,6.515,0,0,1-4.258,2.53c3.635.8,5.638,3.122,5.638,6.531v3.329C100.6,75.9,96.729,79.114,90.737,79.114ZM84.411,64.233v6.99h3.364c1.608,0,2.325-.6,2.325-1.957V66.19c0-1.335-.739-1.957-2.325-1.957Zm0-12.824v7.028h3.364c1.586,0,2.325-.627,2.325-1.975V53.407c0-1.4-.7-2-2.325-2ZM34.458,35.7h-9.7L34.056,0H46.531l9.249,35.694H44.6L43.5,30.4H35.772l-1.315,5.292Zm5.479-25.306h0L37.376,22.266H42.16L39.938,10.391ZM24.555,35.7H0V0H10.92V26.762H24.555v8.932Z" transform="translate(0 7.422)"/></svg>