<svg xmlns="http://www.w3.org/2000/svg" xmlns:xlink="http://www.w3.org/1999/xlink" width="190" height="95" viewBox="0 0 190 95"><defs><style>.a,.d{fill:none;}.b{fill:#e20714;}.c{fill:#20201f;}.d{stroke:#1d1d1b;stroke-miterlimit:10;stroke-width:0.508px;}.e{fill:#1d1d1b;}.f{clip-path:url(#a);}.g{fill:#fefefe;}</style><clipPath id="a"><path class="a" d="M0,68.986H189.077V0H0Z"/></clipPath></defs><g transform="translate(0 12.655)"><path class="b" d="M94.273,0,0,34.7,94.275,69.766,188.516,34.7,94.278,0Z" transform="translate(0 0.705)"/><path class="c" d="M0,2.969H5.938V0H0Z" transform="translate(151.406 54.142)"/><path class="d" d="M0,2.969H5.938V0H0Z" transform="translate(151.406 54.142)"/><path class="c" d="M0,5.938H5.938V0H0Z" transform="translate(50.469 51.174)"/><path class="d" d="M0,5.938H5.938V0H0Z" transform="translate(50.469 51.174)"/><path class="c" d="M0,7.422H5.938V0H0Z" transform="translate(46.016 11.095)"/><path class="d" d="M0,7.422H5.938V0H0Z" transform="translate(46.016 11.095)"/><path class="c" d="M0,5.938H10.391V0H0Z" transform="translate(117.266 11.095)"/><path class="d" d="M0,5.938H10.391V0H0Z" transform="translate(117.266 11.095)"/><path class="e" d="M0,5.938H3.06L7.422,0H2.744Z" transform="translate(74.219 8.127)"/><path class="d" d="M0,5.938H3.06L7.422,0H2.744Z" transform="translate(74.219 8.127)"/><path class="c" d="M0,0H7V43.583h7.848v5.4H0Z" transform="translate(32.656 8.127)"/><path class="d" d="M0,0H7V43.583h7.848v5.4H0Z" transform="translate(32.656 8.127)"/><path class="c" d="M0,41.563H5.938V0H0Z" transform="translate(46.016 15.549)"/><path class="d" d="M0,41.563H5.938V0H0Z" transform="translate(46.016 15.549)"/><path class="c" d="M0,5.938H5.938V0H0Z" transform="translate(46.016 8.127)"/><path class="d" d="M0,5.938H5.938V0H0Z" transform="translate(46.016 8.127)"/><path class="c" d="M6.052,10.348c2.091-4.441,8.6-4.257,8.2,3.34V42.125c0,7.449-6.876,7.779-8.2,4.22v1.981H0V0H6.052Z" transform="translate(54.027 7.853)"/><path class="d" d="M6.052,10.348c2.091-4.441,8.6-4.257,8.2,3.34V42.125c0,7.449-6.876,7.779-8.2,4.22v1.981H0V0H6.052Z" transform="translate(54.027 7.853)"/><path class="e" d="M2.568,30.645a1.288,1.288,0,1,1-2.568,0V1.362a1.286,1.286,0,1,1,2.568,0Z" transform="translate(61.143 19.847)"/><path class="d" d="M2.568,30.645a1.288,1.288,0,1,1-2.568,0V1.362a1.286,1.286,0,1,1,2.568,0Z" transform="translate(61.143 19.847)"/><path class="c" d="M8.213,24.806h5.392V35.888c.33,5.834-6.969,5.284-6.969,5.284-3.008,0-7.7-1.431-6.419-6.128V5.944C.217,1.5,3.776,0,6.782,0H7c3.044,0,6.6,1.5,6.6,5.944V20.365H5.645V35.3a1.288,1.288,0,1,0,2.568,0Z" transform="translate(70.938 15.191)"/><path class="d" d="M8.213,24.806h5.392V35.888c.33,5.834-6.969,5.284-6.969,5.284-3.008,0-7.7-1.431-6.419-6.128V5.944C.217,1.5,3.776,0,6.782,0H7c3.044,0,6.6,1.5,6.6,5.944V20.365H5.645V35.3a1.288,1.288,0,1,0,2.568,0Z" transform="translate(70.938 15.191)"/><path class="e" d="M0,12.041V1.362a1.286,1.286,0,1,1,2.567,0V12.041Z" transform="translate(77.612 19.847)"/><path class="d" d="M0,12.041V1.362a1.286,1.286,0,1,1,2.567,0V12.041Z" transform="translate(77.612 19.847)"/><path class="c" d="M7.886,5.416c.7-.953,2.384-.7,4.182,1.1,1.761,1.761,5.685-3.045,2.31-5.431C11-1.335,8.95.756,7.886,2.848L7.85,2.774V.572H0V41.23H7.85V5.416Z" transform="translate(85.46 14.949)"/><path class="d" d="M7.886,5.416c.7-.953,2.384-.7,4.182,1.1,1.761,1.761,5.685-3.045,2.31-5.431C11-1.335,8.95.756,7.886,2.848L7.85,2.774V.572H0V41.23H7.85V5.416Z" transform="translate(85.46 14.949)"/><path class="c" d="M0,35.08V22.273c-.036-4.184,2.6-5.211,7.959-8.551V6.494a1.3,1.3,0,1,0-2.6,0v5.871H0V5.981C0,1.5,3.558,0,6.565,0h.22c3.045,0,6.712,1.137,6.6,5.981V41.1H7.959V39.153C4.8,43.042,0,41.281,0,37.391Z" transform="translate(96.391 15.082)"/><path class="d" d="M0,35.08V22.273c-.036-4.184,2.6-5.211,7.959-8.551V6.494a1.3,1.3,0,1,0-2.6,0v5.871H0V5.981C0,1.5,3.558,0,6.565,0h.22c3.045,0,6.712,1.137,6.6,5.981V41.1H7.959V39.153C4.8,43.042,0,41.281,0,37.391Z" transform="translate(96.391 15.082)"/><path class="e" d="M0,3.192C0,1.319,1.981.366,2.567,0V16.292a1.288,1.288,0,1,1-2.567,0V3.192Z" transform="translate(102.956 34.2)"/><path class="d" d="M0,3.192C0,1.319,1.981.366,2.567,0V16.292a1.288,1.288,0,1,1-2.567,0V3.192Z" transform="translate(102.956 34.2)"/><path class="c" d="M7.115,10.9h1.5V6.092h-1.5V0L1.5,2.092v4H0V10.9H1.5V43.557c0,5.467,6.015,3.852,10.125,1.541V41.429c-1.1,0-4.513.074-4.513-1.541Z" transform="translate(111.869 9.173)"/><path class="d" d="M7.115,10.9h1.5V6.092h-1.5V0L1.5,2.092v4H0V10.9H1.5V43.557c0,5.467,6.015,3.852,10.125,1.541V41.429c-1.1,0-4.513.074-4.513-1.541Z" transform="translate(111.869 9.173)"/><path class="c" d="M5.978,40.878,5.869,0H0L.109,40.878Z" transform="translate(121.516 15.265)"/><path class="d" d="M5.978,40.878,5.869,0H0L.109,40.878Z" transform="translate(121.516 15.265)"/><path class="a" d="M0,68.986H189.077V0H0Z"/><g class="f"><path class="c" d="M0,5.064H5.869V0H0Z" transform="translate(121.515 8.403)"/><path class="d" d="M0,5.064H5.869V0H0Z" transform="translate(121.515 8.403)"/><path class="c" d="M13.5,39.057c-1.247,2.5-4.769,2.532-6.088,2.459C3.63,41.333,0,39.572,0,35.131V6.032C0,1.592,3.557.087,6.565.087h.257C10.488-.39,13.5,1.041,13.5,5.482c0,0-.024,33.575,0,33.575" transform="translate(130.123 15.067)"/><path class="d" d="M13.5,39.057c-1.247,2.5-4.769,2.532-6.088,2.459C3.63,41.333,0,39.572,0,35.131V6.032C0,1.592,3.557.087,6.565.087h.257C10.488-.39,13.5,1.041,13.5,5.482,13.5,5.482,13.473,39.057,13.5,39.057Z" transform="translate(130.123 15.067)"/><path class="e" d="M2.567,30.645a1.288,1.288,0,1,1-2.567,0V1.362a1.286,1.286,0,1,1,2.567,0Z" transform="translate(137.911 19.847)"/><path class="d" d="M2.567,30.645a1.288,1.288,0,1,1-2.567,0V1.362a1.286,1.286,0,1,1,2.567,0Z" transform="translate(137.911 19.847)"/><path class="c" d="M8.473,40.988V6.018c0-1.8-1.431-1.835-1.431,0v34.97H0V0L3.906,1.22,6.052,3.009c1.614-4.257,8.51-4.11,8.51,3.376v34.6Z" transform="translate(145.833 15.155)"/><path class="d" d="M8.473,40.988V6.018c0-1.8-1.431-1.835-1.431,0v34.97H0V0L3.906,1.22,6.052,3.009c1.614-4.257,8.51-4.11,8.51,3.376v34.6Z" transform="translate(145.833 15.155)"/><path class="g" d="M0,0H6.162V42.236h7.006v5.321H0Z" transform="translate(29.563 6.678)"/><path class="d" d="M0,0H6.162V42.236h7.006v5.321H0Z" transform="translate(29.563 6.678)"/><path class="g" d="M0,40.658H5.612V0H0Z" transform="translate(42.731 13.541)"/><path class="d" d="M0,40.658H5.612V0H0Z" transform="translate(42.731 13.541)"/><path class="g" d="M0,5.1H5.685V0H0Z" transform="translate(42.693 6.678)"/><path class="d" d="M0,5.1H5.685V0H0Z" transform="translate(42.693 6.678)"/><path class="g" d="M6.053,9.467c1.577-4.293,7.922-4.11,7.922,3.376V41.208c-.22,7.89-7.006,8.329-7.922,3.89v2.348H0V0H6.053Z" transform="translate(51.459 6.679)"/><path class="d" d="M6.053,9.467c1.577-4.293,7.922-4.11,7.922,3.376V41.208c-.22,7.89-7.006,8.329-7.922,3.89v2.348H0V0H6.053Z" transform="translate(51.459 6.679)"/><path class="c" d="M2.348,30.672a1.191,1.191,0,1,1-2.348,0V1.39a1.191,1.191,0,1,1,2.348,0Z" transform="translate(57.475 17.912)"/><path class="d" d="M2.348,30.672a1.191,1.191,0,1,1-2.348,0V1.39a1.191,1.191,0,1,1,2.348,0Z" transform="translate(57.475 17.912)"/><path class="g" d="M8,24.843h5.392V35.081c0,4.44-3.558,6.165-6.6,6.165h-.22C3.557,41.246,0,39.521,0,35.081V5.982C0,1.5,3.557,0,6.565,0h.22c3.044,0,6.6,1.5,6.6,5.982V20.4H5.428V35.337a1.288,1.288,0,1,0,2.568,0Z" transform="translate(68.185 13.21)"/><path class="d" d="M8,24.843h5.392V35.081c0,4.44-3.558,6.165-6.6,6.165h-.22C3.557,41.246,0,39.521,0,35.081V5.982C0,1.5,3.557,0,6.565,0h.22c3.044,0,6.6,1.5,6.6,5.982V20.4H5.428V35.337a1.288,1.288,0,1,0,2.568,0Z" transform="translate(68.185 13.21)"/><path class="c" d="M0,12.068V1.39a1.288,1.288,0,1,1,2.568,0V12.068Z" transform="translate(73.65 17.875)"/><path class="d" d="M0,12.068V1.39a1.288,1.288,0,1,1,2.568,0V12.068Z" transform="translate(73.65 17.875)"/><path class="g" d="M0,4.22H3.192L6.749,0h-4.7Z" transform="translate(73.173 7.045)"/><path class="d" d="M0,4.22H3.192L6.749,0h-4.7Z" transform="translate(73.173 7.045)"/><path class="g" d="M6.088,5.538c1.1-1.944,2.384-.807,4.181.953,1.761,1.8,5.686-3.008,2.311-5.431C9.206-1.324,7.152.768,6.088,2.86l-.036-.11V.694H0V41.242H6.088Z" transform="translate(84.067 12.882)"/><path class="d" d="M6.088,5.538c1.1-1.944,2.384-.807,4.181.953,1.761,1.8,5.686-3.008,2.311-5.431C9.206-1.324,7.152.768,6.088,2.86l-.036-.11V.694H0V41.242H6.088Z" transform="translate(84.067 12.882)"/><path class="g" d="M0,35.044V22.274c-.036-4.184,2.6-5.248,7.959-8.587v-7.6a1.309,1.309,0,1,0-2.6,0v6.275H0V5.945C0,1.5,3.558,0,6.566,0h.219c3.044,0,6.6,1.5,6.6,5.945V41.1H7.959V39.116C4.8,43.043.074,41.759,0,37.392Z" transform="translate(93.199 12.989)"/><path class="d" d="M0,35.044V22.274c-.036-4.184,2.6-5.248,7.959-8.587v-7.6a1.309,1.309,0,1,0-2.6,0v6.275H0V5.945C0,1.5,3.558,0,6.566,0h.219c3.044,0,6.6,1.5,6.6,5.945V41.1H7.959V39.116C4.8,43.043.074,41.759,0,37.392Z" transform="translate(93.199 12.989)"/><path class="c" d="M0,3.156C0,1.322,1.761.367,2.31,0V16.292c0,1.836-2.31,1.873-2.31,0V3.156Z" transform="translate(98.848 32.254)"/><path class="d" d="M0,3.156C0,1.322,1.761.367,2.31,0V16.292c0,1.836-2.31,1.873-2.31,0V3.156Z" transform="translate(98.848 32.254)"/><path class="g" d="M7.115,10.751h1.5V6.2H7.079L7.115,0,1.5,1.908V6.2H0v4.55H1.5V43.667c0,4.33,4.769,3.6,7.227,2.421V42.419c-1.064,0-1.615-1.064-1.615-2.678Z" transform="translate(108.275 7.376)"/><path class="d" d="M7.115,10.751h1.5V6.2H7.079L7.115,0,1.5,1.908V6.2H0v4.55H1.5V43.667c0,4.33,4.769,3.6,7.227,2.421V42.419c-1.064,0-1.615-1.064-1.615-2.678Z" transform="translate(108.275 7.376)"/><path class="g" d="M0,40.511H5.538V0H0Z" transform="translate(118.984 13.577)"/><path class="d" d="M0,40.511H5.538V0H0Z" transform="translate(118.984 13.577)"/><path class="g" d="M0,5.027H5.869V0H0Z" transform="translate(119.022 6.715)"/><path class="d" d="M0,5.027H5.869V0H0Z" transform="translate(119.022 6.715)"/><path class="g" d="M13.387,24.843V35.081c0,4.44-3.484,6.091-6.491,6.091h-.22C3.631,41.172,0,39.521,0,35.081V5.982C0,1.5,3.557,0,6.6,0h.22c3.007,0,6.565,1.5,6.565,5.982V24.843Z" transform="translate(127.384 13.21)"/><path class="d" d="M13.387,24.843V35.081c0,4.44-3.484,6.091-6.491,6.091h-.22C3.631,41.172,0,39.521,0,35.081V5.982C0,1.5,3.557,0,6.6,0h.22c3.007,0,6.565,1.5,6.565,5.982V24.843Z" transform="translate(127.384 13.21)"/><path class="c" d="M2.567,30.672a1.288,1.288,0,1,1-2.567,0V1.39a1.288,1.288,0,1,1,2.567,0Z" transform="translate(132.776 17.765)"/><path class="d" d="M2.567,30.672a1.288,1.288,0,1,1-2.567,0V1.39a1.288,1.288,0,1,1,2.567,0Z" transform="translate(132.776 17.765)"/><path class="g" d="M8.473,40.811V5.841a1.222,1.222,0,1,0-2.421,0v34.97H0V.153H6.052V2.831c1.614-4.293,7.922-4.109,7.922,3.376v34.6Z" transform="translate(143.559 13.424)"/><path class="d" d="M8.473,40.811V5.841a1.222,1.222,0,1,0-2.421,0v34.97H0V.153H6.052V2.831c1.614-4.293,7.922-4.109,7.922,3.376v34.6Z" transform="translate(143.559 13.424)"/></g></g></svg>