<svg xmlns="http://www.w3.org/2000/svg" xmlns:xlink="http://www.w3.org/1999/xlink" width="120" height="120" viewBox="0 0 120 120"><defs><style>.a{fill:#fff;}.b{opacity:0.2;}.c{fill:#b84336;}.d{fill:#05386b;}.e{filter:url(#a);}</style><filter id="a" x="0" y="0" width="120" height="120" filterUnits="userSpaceOnUse"><feOffset dy="1" input="SourceAlpha"/><feGaussianBlur stdDeviation="9" result="b"/><feFlood flood-color="#1493a0" flood-opacity="0.153"/><feComposite operator="in" in2="b"/><feComposite in="SourceGraphic"/></filter></defs><g transform="translate(27 26)"><g class="e" transform="matrix(1, 0, 0, 1, -27, -26)"><rect class="a" width="66" height="66" rx="3" transform="translate(27 26)"/></g><g transform="translate(0 1)"><g class="b" transform="translate(20.042 12.458)"><circle class="c" cx="12.458" cy="12.458" r="12.458"/></g><g transform="translate(15.381 8.339)"><path class="d" d="M3.441,48.75A3.445,3.445,0,0,1,0,45.309V3.441A3.445,3.445,0,0,1,3.441,0H29.25a.54.54,0,0,1,.383.158l4.875,4.875a.54.54,0,0,1,.158.383V45.309a3.445,3.445,0,0,1-3.441,3.441ZM1.083,3.441V45.309a2.36,2.36,0,0,0,2.358,2.358H31.226a2.36,2.36,0,0,0,2.358-2.358V6.229h-4.4a.542.542,0,0,1-.542-.542v-4.6H3.441A2.36,2.36,0,0,0,1.083,3.441Zm28.645,1.7h3.026L29.728,2.12ZM5.417,43.062a.541.541,0,0,1-.063-1.079l.063,0H28.708a.542.542,0,0,1,.063,1.08l-.063,0Zm0-4.008a.542.542,0,0,1-.063-1.08l.063,0H28.708a.542.542,0,0,1,.063,1.08l-.063,0Zm0-4.008a.542.542,0,0,1-.063-1.08l.063,0H28.708a.542.542,0,0,1,.063,1.08l-.063,0Zm0-4.009a.541.541,0,0,1-.063-1.079l.063,0H24.375a.542.542,0,0,1,.063,1.08l-.063,0Zm0-4.008a.542.542,0,0,1-.063-1.08l.063,0H29.25a.542.542,0,0,1,.063,1.079l-.063,0Zm6.765-4.821a.542.542,0,0,1-.063-1.08l.063,0h4.2a8.156,8.156,0,0,1-.345-3.621l.019-.218a14.629,14.629,0,0,1,.5-2.691l.006-.018a.113.113,0,0,1,0-.031l.02-6.279a7.415,7.415,0,0,0-.812.266l-.817.311a6.476,6.476,0,0,1-1.224.363,2.478,2.478,0,0,1-1.71-.293l1.738,4.358a.712.712,0,0,1,.457.24,1.062,1.062,0,0,1,.232.822A4.152,4.152,0,0,1,13.273,16.8a3.26,3.26,0,0,1-4.692,0,4.155,4.155,0,0,1-1.169-2.466,1.064,1.064,0,0,1,.233-.823.711.711,0,0,1,.456-.238l2.15-5.388a.7.7,0,0,1,.676-.426.9.9,0,0,1,.1.006.54.54,0,0,1,.091-.03l.065-.011a1.127,1.127,0,0,1,.7.156l.151.088c.141.085.314.194.327.2a1.533,1.533,0,0,0,1.167.271l.132-.026a6.622,6.622,0,0,0,.925-.293l.792-.3a6.8,6.8,0,0,1,1.173-.356l.023,0,0-1.036a.542.542,0,0,1-.137-.07,1.185,1.185,0,1,1,1.363,0,.537.537,0,0,1-.142.071l0,1.026.049.009.16.033a6.829,6.829,0,0,1,.907.281l.916.348a5.742,5.742,0,0,0,1.057.32,1.462,1.462,0,0,0,1.055-.206l.12-.071c.06-.038.372-.234.469-.285a1.182,1.182,0,0,1,.611-.164l.091.008.062.01a.538.538,0,0,1,.222.106.8.8,0,0,1,.357-.081.7.7,0,0,1,.676.424l2.15,5.389a.71.71,0,0,1,.457.24,1.06,1.06,0,0,1,.232.822A4.152,4.152,0,0,1,26.086,16.8a3.26,3.26,0,0,1-4.692,0,4.156,4.156,0,0,1-1.169-2.466,1.066,1.066,0,0,1,.233-.823.711.711,0,0,1,.456-.238L22.77,8.62l-.287.175a2.571,2.571,0,0,1-1.918.413A7,7,0,0,1,19.21,8.8l-.668-.255a7.056,7.056,0,0,0-.882-.286l-.02,6.292.019.042a10.393,10.393,0,0,1,.513,3.222,9.846,9.846,0,0,1-.383,3.315h4.284a.542.542,0,0,1,.063,1.08l-.063,0Zm4.909-4.316,0,.088c-.02.359-.024.7-.011,1.02l.014.266.008-.111a10.937,10.937,0,0,0,0-1.112l-.008-.15h0Zm4.251-3.427A2.618,2.618,0,0,0,23.63,16.71l.111,0a2.6,2.6,0,0,0,2.4-2.248l.02-.115H21.321Zm-12.813,0a2.618,2.618,0,0,0,2.288,2.244l.111,0a2.606,2.606,0,0,0,2.4-2.248l.02-.115H8.508Zm13.559-1.21h3.306L23.74,9.112Zm-12.814,0h3.306L10.926,9.112Z" transform="translate(0 0)"/></g></g></g></svg>