<svg xmlns="http://www.w3.org/2000/svg" width="94" height="94" viewBox="0 0 94 94"><defs><style>.a{opacity:0.2;}.b{fill:#b84336;}.c{fill:#05386b;}</style></defs><g class="a" transform="translate(30.55 12.533)"><rect class="b" width="37.6" height="69.717"/></g><g transform="translate(21.933 11.748)"><path class="c" d="M4.976,70.5A4.981,4.981,0,0,1,0,65.526V4.977A4.981,4.981,0,0,1,4.976,0h37.33a.77.77,0,0,1,.558.241l7.05,7.311a.825.825,0,0,1,.056.065.007.007,0,0,0,0,0l0,.006a.772.772,0,0,1,.155.515V65.526A4.981,4.981,0,0,1,45.157,70.5ZM1.567,4.977V65.526a3.413,3.413,0,0,0,3.409,3.409H45.157a3.413,3.413,0,0,0,3.409-3.409V8.879H42.3a.784.784,0,0,1-.783-.783V1.568H4.976A3.413,3.413,0,0,0,1.567,4.977ZM43.083,7.312h4.422L43.083,2.726ZM7.833,62.277a.783.783,0,0,1-.091-1.562l.091-.006H41.517a.783.783,0,0,1,.091,1.562l-.091.006Zm0-5.8a.783.783,0,0,1-.091-1.562l.091,0H41.517a.783.783,0,0,1,.091,1.561l-.091.006Zm0-5.8a.783.783,0,0,1-.091-1.561l.091-.006H41.517a.783.783,0,0,1,.091,1.562l-.091,0Zm0-5.8a.783.783,0,0,1-.091-1.562l.091-.006H35.25a.783.783,0,0,1,.092,1.562l-.092.006Zm0-5.8a.783.783,0,0,1-.091-1.562l.091,0H42.3a.783.783,0,0,1,.092,1.562l-.092,0ZM7.224,14.507,7.21,14.1H8.848l.035.352c.03.274.222,1.167,1.533,1.167.871,0,1.434-.447,1.434-1.139,0-.807-.643-1.018-1.779-1.322-1.237-.331-2.776-.744-2.776-2.7,0-1.537,1.254-2.61,3.049-2.61A2.8,2.8,0,0,1,13.4,10.21l.055.441H11.778l-.054-.329A1.3,1.3,0,0,0,10.3,9.347a1.632,1.632,0,0,0-1.1.373.964.964,0,0,0-.283.718c0,.785.642,1,1.774,1.309,1.239.339,2.781.761,2.781,2.7a2.776,2.776,0,0,1-3.06,2.658C8.593,17.1,7.282,16.037,7.224,14.507Zm6.334,2.513,3.314-8.968h1.483l3.3,8.968H19.944l-.724-1.97H15.994l-.723,1.97H13.558Zm2.973-3.441h2.153l-1.077-2.949ZM29,17.021V7.945h1.614v7.616h2.977v1.459Zm-5.353,0H22.035V7.945h2.883c2.371,0,3.216,1.447,3.216,2.8a2.619,2.619,0,0,1-1.827,2.6l2.224,3.67H26.616l-2.052-3.463h-.915V17.02h0Zm0-4.924H24.93c1.024,0,1.564-.467,1.564-1.352,0-.613-.179-1.316-1.577-1.316H23.649Z" transform="translate(0 0)"/></g></svg>