<svg xmlns="http://www.w3.org/2000/svg" width="87" height="87" viewBox="0 0 87 87"><defs><style>.a{opacity:0.2;}.b{fill:#b84336;}.c{fill:#05386b;}</style></defs><g class="a" transform="translate(26.825 16.675)"><circle class="b" cx="16.675" cy="16.675" r="16.675"/></g><path class="c" d="M26.047,55.464l-.129-.122a3.483,3.483,0,0,1-.953-1.774,3.733,3.733,0,0,1-4.067-.6l-.132-.126a3.683,3.683,0,0,1-.98-1.749,3.671,3.671,0,0,1-2.354.842h0a3.73,3.73,0,0,1-2.491-.953l-.132-.126A3.685,3.685,0,0,1,13.785,48.9a3.693,3.693,0,0,1-1.649.384h0a3.73,3.73,0,0,1-2.491-.953L9.512,48.2a3.71,3.71,0,0,1,0-5.238l2.056-2.056L9.384,39.55A3.2,3.2,0,0,1,6.2,42.491H3.192A3.2,3.2,0,0,1,0,39.3V18.749a3.2,3.2,0,0,1,3.192-3.193H6.2a3.2,3.2,0,0,1,3.193,3.193v.386l16.054-2.248a.721.721,0,0,1,.434.074l5.75-2.344a.732.732,0,0,1,.345-.05l.087.014,20.231,4.511v-.342a3.2,3.2,0,0,1,3.192-3.193H58.5a3.2,3.2,0,0,1,3.193,3.193V39.3A3.2,3.2,0,0,1,58.5,42.491H55.487A3.2,3.2,0,0,1,52.295,39.3v-3l-2.869,1.986a3.622,3.622,0,0,1-.359,4.35,3.258,3.258,0,0,1-2.821.894,3.256,3.256,0,0,1-.893,2.82,3.31,3.31,0,0,1-3.442.74,3.218,3.218,0,0,1-.934,2.313,3.258,3.258,0,0,1-2.82.894,3.258,3.258,0,0,1-.894,2.82,3.389,3.389,0,0,1-4.4.236l-1.988,1.988A3.473,3.473,0,0,1,28.4,56.362,3.526,3.526,0,0,1,26.047,55.464Zm.882-1.161.1.094a2.06,2.06,0,0,0,2.817-.08l2.181-2.181A2.052,2.052,0,0,0,29.2,49.165a3.681,3.681,0,0,1-.853,1.332L26.392,52.45A2.045,2.045,0,0,0,26.929,54.3Zm9.309-2.21a1.962,1.962,0,0,0-.031-2.671l-.025-.027L30.8,46.606a.725.725,0,0,1-.345-.9l.035-.078a.8.8,0,0,1,.942-.386l.077.035L37,48.121a.756.756,0,0,1,.125.081l.055.05a1.874,1.874,0,1,0,2.743-2.545l-.1-.1-4.83-4.829a.725.725,0,0,1,.957-1.086l.069.061.456.456a.72.72,0,0,1,.18.1l.069.061L41.553,45.2A1.874,1.874,0,1,0,44.3,42.655l-.1-.1-4.829-4.83a.725.725,0,0,1,0-1.026l.021-.02.02-.021a.726.726,0,0,1,.957-.06l.068.06,4.83,4.829a1.976,1.976,0,0,0,2.774.127,2.226,2.226,0,0,0-.07-2.869l-.1-.1-1.324-1.324a.724.724,0,0,1-.133-.184l-3.921-4.056-12.927-7.53-2.774,4.713a3.7,3.7,0,0,1-2.661,1.794l-.176.021-.54.047a8.988,8.988,0,0,1-4.18-.3,2.9,2.9,0,0,1-1.364-1.6,4.773,4.773,0,0,1-.33-1.695.739.739,0,0,1,.025-.19l.031-.091,3.9-9.267a.722.722,0,0,1,.04-.08L9.393,20.6V37.848l3.38,2.1a3.7,3.7,0,0,1,5.34,2.625,3.725,3.725,0,0,1,4.273.7l.123.129a3.675,3.675,0,0,1,.856,1.621,3.715,3.715,0,0,1,4.979.236l.123.129a3.679,3.679,0,0,1,.926,2,3.523,3.523,0,0,1,1.182-.2,3.478,3.478,0,0,1,2.476,1.021l.12.127a3.5,3.5,0,0,1,.564,3.864A1.942,1.942,0,0,0,36.237,52.092ZM21.777,51.8l.1.1a2.264,2.264,0,0,0,3.1-.085l.116-.116a3.482,3.482,0,0,1,.824-1.306l2-2a2.294,2.294,0,0,0,.057-.511,2.238,2.238,0,0,0-.656-1.594l-.1-.1a2.263,2.263,0,0,0-3.084.1l-.891.891a3.679,3.679,0,0,1-.855,1.336l-1.2,1.2A2.232,2.232,0,0,0,21.777,51.8Zm-5.958-1.986.1.1a2.262,2.262,0,0,0,3.1-.085l.89-.89a3.68,3.68,0,0,1,.855-1.336l1.2-1.2A2.255,2.255,0,0,0,18.174,44.3l-.227.227a3.682,3.682,0,0,1-.856,1.338l-1.862,1.862A2.232,2.232,0,0,0,15.819,49.812Zm-2.94-8.162-2.341,2.341a2.248,2.248,0,0,0-.014,3.173l.1.1a2.262,2.262,0,0,0,3.1-.085l.228-.228a3.683,3.683,0,0,1,.855-1.337l1.857-1.857a2.289,2.289,0,0,0,.058-.512,2.241,2.241,0,0,0-.657-1.595l-.1-.1a2.265,2.265,0,0,0-3.084.1Zm40.866-22.9V39.3a1.745,1.745,0,0,0,1.742,1.743H58.5A1.745,1.745,0,0,0,60.238,39.3V18.749A1.745,1.745,0,0,0,58.5,17.006H55.487A1.744,1.744,0,0,0,53.744,18.749Zm-52.295,0V39.3a1.745,1.745,0,0,0,1.742,1.743H6.2A1.745,1.745,0,0,0,7.944,39.3V18.749A1.745,1.745,0,0,0,6.2,17.006H3.192A1.744,1.744,0,0,0,1.45,18.749ZM29.6,23.891l.076.038,13.638,7.944a.7.7,0,0,1,.108.077l.048.045,5.011,5.184,3.8-2.628.019-.013V20.577L31.969,16.045l-9.253,3.773L19,28.658l.007.084.016.138a3.461,3.461,0,0,0,.2.812,1.5,1.5,0,0,0,.672.837,10.349,10.349,0,0,0,3.927.1,2.238,2.238,0,0,0,1.644-.984l.078-.123,3.14-5.334a.725.725,0,0,1,.914-.3Zm6.361-13.385a.725.725,0,0,1-.061-.957l.061-.069,4.3-4.3a.725.725,0,0,1,1.086.957l-.061.068-4.3,4.3a.725.725,0,0,1-1.025,0Zm-11.516.06-.069-.06-4.3-4.3a.725.725,0,0,1,.957-1.085l.069.06,4.3,4.3a.725.725,0,0,1-.957,1.086Zm6.013-.488-.005-.085V.725A.725.725,0,0,1,31.895.641l0,.084V9.992a.725.725,0,0,1-1.445.085Z" transform="translate(12.463 12.463)"/></svg>