<?xml version="1.0"?>
<svg xmlns="http://www.w3.org/2000/svg" id="Capa_1" enable-background="new 0 0 512 512" height="512px" viewBox="0 0 512 512" width="512px" class=""><g><g><path d="m210.875 210.625h90.25v120.875h-90.25z" data-original="#000000" class="active-path" data-old_color="#000000" fill="#55EFC4"/><path d="m150.5 331.5v-120.875h-90.25v122.382c4.849-.987 9.864-1.507 15-1.507z" data-original="#000000" class="active-path" data-old_color="#000000" fill="#55EFC4"/><path d="m361.5 331.5h75.25c5.136 0 10.151.521 15 1.507v-122.382h-90.25z" data-original="#000000" class="active-path" data-old_color="#000000" fill="#55EFC4"/><path d="m466.875 180.625c8.284 0 15-6.716 15-15v-20.125c0-5.195-2.688-10.021-7.106-12.755l-210.875-130.5c-4.837-2.993-10.95-2.993-15.787 0l-210.875 130.5c-4.418 2.734-7.106 7.56-7.106 12.755v20.125c0 8.284 6.716 15 15 15zm-210.875-110.375c24.882 0 45.125 20.243 45.125 45.125s-20.243 45.125-45.125 45.125-45.125-20.243-45.125-45.125 20.243-45.125 45.125-45.125z" data-original="#000000" class="active-path" data-old_color="#000000" fill="#55EFC4"/><circle cx="256" cy="115.375" r="15.125" data-original="#000000" class="active-path" data-old_color="#000000" fill="#55EFC4"/><path d="m466.875 411.75c5.136 0 10.151.521 15 1.507v-6.632c0-24.882-20.243-45.125-45.125-45.125h-361.5c-24.882 0-45.125 20.243-45.125 45.125v6.632c4.849-.987 9.864-1.507 15-1.507z" data-original="#000000" class="active-path" data-old_color="#000000" fill="#55EFC4"/><path d="m466.875 441.75h-421.75c-24.882 0-45.125 20.243-45.125 45.125v10.125c0 8.284 6.716 15 15 15h482c8.284 0 15-6.716 15-15v-10.125c0-24.882-20.243-45.125-45.125-45.125z" data-original="#000000" class="active-path" data-old_color="#000000" fill="#55EFC4"/></g></g> </svg>
